<svg width="304" height="304" viewBox="0 0 304 304" fill="none" xmlns="http://www.w3.org/2000/svg">
<path d="M195.204 205.711C195.204 205.711 218.916 204.233 235.235 175.074C251.554 145.914 248.611 101.433 228.316 76.7235C208.021 52.0144 176.423 43.6058 146.279 51.5158C131.589 55.3706 121.795 65.36 113.331 77.4045C105.956 87.8986 97.663 98.0157 86.5001 104.655C75.4528 111.234 64.0892 116.475 58.5321 128.975C44.9494 159.375 54.8841 194.773 86.9926 206.702C121.6 219.549 179.39 212.63 195.204 205.711Z" fill="#FFCC04"/>
<path opacity="0.7" d="M195.204 205.711C195.204 205.711 218.916 204.233 235.235 175.074C251.554 145.914 248.611 101.433 228.316 76.7235C208.021 52.0144 176.423 43.6058 146.279 51.5158C131.589 55.3706 121.795 65.36 113.331 77.4045C105.956 87.8986 97.663 98.0157 86.5001 104.655C75.4528 111.234 64.0892 116.475 58.5321 128.975C44.9494 159.375 54.8841 194.773 86.9926 206.702C121.6 219.549 179.39 212.63 195.204 205.711Z" fill="white"/>
<path d="M79.4415 102.819H221.604C222.639 102.819 223.632 103.23 224.364 103.962C225.096 104.694 225.507 105.687 225.507 106.722V205.583H75.5381V106.728C75.5373 106.215 75.6377 105.707 75.8335 105.233C76.0293 104.758 76.3167 104.327 76.6792 103.964C77.0417 103.601 77.4723 103.313 77.9463 103.117C78.4203 102.92 78.9283 102.819 79.4415 102.819Z" fill="#263238"/>
<path d="M225.817 205.887H75.2339V106.728C75.2339 105.612 75.677 104.541 76.4658 103.751C77.2547 102.961 78.3248 102.516 79.4413 102.515H221.604C222.721 102.516 223.792 102.961 224.581 103.751C225.371 104.541 225.816 105.611 225.817 106.728V205.887ZM75.8419 205.279H225.209V106.728C225.208 105.773 224.827 104.856 224.151 104.181C223.476 103.505 222.56 103.124 221.604 103.123H79.4413C78.4861 103.124 77.5706 103.505 76.8957 104.181C76.2209 104.857 75.8419 105.773 75.8419 106.728V205.279Z" fill="#263238"/>
<path d="M243.547 252.703H57.4987C55.4437 252.703 53.7109 249.754 54.6229 247.912L75.5381 207.279H225.513L246.538 247.772C247.456 249.608 245.632 252.703 243.547 252.703Z" fill="#263238"/>
<path d="M243.547 253.007H57.4986C56.9223 252.971 56.3647 252.788 55.8786 252.476C55.3924 252.165 54.9937 251.734 54.7201 251.226C54.3751 250.728 54.1595 250.152 54.0926 249.55C54.0258 248.949 54.1098 248.34 54.337 247.778L75.3374 206.975H225.696L225.781 207.133L246.806 247.632C247.031 248.206 247.111 248.828 247.037 249.44C246.962 250.053 246.737 250.637 246.38 251.14C246.099 251.662 245.693 252.105 245.199 252.431C244.704 252.757 244.137 252.955 243.547 253.007ZM75.7386 207.583L54.8903 248.064C54.7103 248.532 54.6488 249.037 54.7114 249.535C54.774 250.032 54.9587 250.507 55.249 250.916C55.4703 251.332 55.7918 251.687 56.1846 251.948C56.5773 252.209 57.0289 252.368 57.4986 252.411H243.547C244.033 252.359 244.499 252.188 244.903 251.912C245.308 251.636 245.637 251.264 245.863 250.83C246.163 250.415 246.356 249.932 246.426 249.424C246.496 248.916 246.44 248.399 246.264 247.918L225.325 207.583H75.7386Z" fill="#263238"/>
<path d="M243.547 251.007H57.4987C57.0278 251.007 56.5647 250.887 56.1531 250.658C55.7415 250.43 55.3952 250.1 55.1468 249.7C54.8984 249.3 54.7562 248.843 54.7336 248.373C54.7111 247.902 54.809 247.434 55.018 247.012L75.538 205.583H225.513L246.027 247.012C246.236 247.434 246.334 247.902 246.312 248.373C246.289 248.843 246.147 249.3 245.899 249.7C245.65 250.1 245.304 250.43 244.892 250.658C244.481 250.887 244.018 251.007 243.547 251.007Z" fill="white"/>
<path d="M243.547 251.311H57.4986C56.974 251.315 56.457 251.185 55.9969 250.933C55.5368 250.681 55.1489 250.316 54.8703 249.871C54.5916 249.427 54.4315 248.918 54.4052 248.394C54.3789 247.87 54.4873 247.349 54.72 246.878L75.24 205.449C75.2639 205.397 75.3025 205.353 75.3512 205.323C75.3998 205.293 75.4563 205.277 75.5136 205.279H225.513C225.57 205.278 225.625 205.293 225.673 205.324C225.72 205.354 225.758 205.398 225.781 205.449L246.301 246.878C246.533 247.347 246.641 247.866 246.616 248.388C246.591 248.91 246.433 249.417 246.157 249.861C245.881 250.305 245.497 250.671 245.04 250.924C244.583 251.178 244.069 251.311 243.547 251.311ZM75.7386 205.887L55.2915 247.146C55.1052 247.521 55.0179 247.938 55.0377 248.357C55.0576 248.776 55.184 249.182 55.405 249.539C55.6261 249.895 55.9343 250.189 56.3007 250.392C56.6671 250.596 57.0794 250.703 57.4986 250.703H243.547C243.966 250.703 244.378 250.596 244.744 250.392C245.111 250.189 245.419 249.895 245.64 249.539C245.861 249.182 245.988 248.776 246.007 248.357C246.027 247.938 245.94 247.521 245.754 247.146L225.325 205.887H75.7386Z" fill="#263238"/>
<path d="M216.43 110.954H84.6216V197.442H216.43V110.954Z" fill="white"/>
<path d="M216.728 197.746H84.3176V110.656H216.728V197.746ZM84.9256 197.138H216.12V111.264H84.9256V197.138Z" fill="#263238"/>
<path d="M213.487 150.371H88.0447V194.329H213.487V150.371Z" fill="#FFCC04"/>
<path opacity="0.46" d="M104.078 176.806V175.712C104.078 175.551 104.014 175.396 103.9 175.282C103.786 175.168 103.631 175.104 103.47 175.104H102.631C102.503 174.547 102.283 174.014 101.98 173.529L102.588 172.921C102.694 172.809 102.753 172.66 102.753 172.505C102.753 172.35 102.694 172.201 102.588 172.088L101.804 171.304C101.691 171.196 101.54 171.136 101.384 171.136C101.228 171.136 101.078 171.196 100.965 171.304L100.357 171.912C99.87 171.608 99.3356 171.388 98.7759 171.261V170.404C98.7759 170.243 98.7118 170.088 98.5978 169.974C98.4838 169.86 98.3291 169.796 98.1679 169.796H97.0613C96.9001 169.796 96.7454 169.86 96.6314 169.974C96.5174 170.088 96.4533 170.243 96.4533 170.404V171.261C95.8958 171.389 95.3636 171.609 94.8786 171.912L94.2706 171.304C94.1578 171.198 94.0089 171.139 93.8541 171.139C93.6993 171.139 93.5504 171.198 93.4376 171.304L92.6837 172.064C92.5777 172.177 92.5187 172.326 92.5187 172.48C92.5187 172.635 92.5777 172.784 92.6837 172.897L93.2917 173.505C92.9886 173.99 92.7687 174.522 92.6412 175.08H91.8082C91.6469 175.08 91.4923 175.144 91.3783 175.258C91.2643 175.372 91.2002 175.526 91.2002 175.688V176.794C91.2002 176.955 91.2643 177.11 91.3783 177.224C91.4923 177.338 91.6469 177.402 91.8082 177.402H92.6655C92.792 177.962 93.0119 178.496 93.316 178.983L92.708 179.591C92.602 179.704 92.543 179.853 92.543 180.008C92.543 180.162 92.602 180.311 92.708 180.424L93.4924 181.208C93.6051 181.314 93.7541 181.373 93.9088 181.373C94.0636 181.373 94.2126 181.314 94.3253 181.208L94.9333 180.6C95.4183 180.903 95.9505 181.123 96.508 181.251V182.108C96.508 182.269 96.5721 182.424 96.6861 182.538C96.8001 182.652 96.9548 182.716 97.116 182.716H98.2226C98.3838 182.716 98.5385 182.652 98.6525 182.538C98.7665 182.424 98.8306 182.269 98.8306 182.108V181.251C99.3903 181.124 99.9247 180.904 100.411 180.6L101.019 181.208C101.132 181.316 101.283 181.376 101.439 181.376C101.595 181.376 101.745 181.316 101.858 181.208L102.643 180.424C102.749 180.311 102.808 180.162 102.808 180.008C102.808 179.853 102.749 179.704 102.643 179.591L102.035 178.983C102.339 178.496 102.559 177.962 102.685 177.402H103.543C103.689 177.385 103.824 177.314 103.922 177.205C104.02 177.095 104.076 176.954 104.078 176.806ZM97.8882 178.752C97.3689 178.805 96.846 178.695 96.3913 178.439C95.9366 178.182 95.5724 177.792 95.3485 177.32C95.1247 176.848 95.0523 176.319 95.1412 175.805C95.2301 175.29 95.476 174.816 95.8451 174.447C96.2142 174.078 96.6884 173.832 97.2028 173.743C97.7172 173.654 98.2464 173.727 98.718 173.951C99.1896 174.174 99.5804 174.539 99.8367 174.993C100.093 175.448 100.203 175.971 100.15 176.49C100.091 177.07 99.8341 177.612 99.422 178.024C99.0099 178.436 98.4681 178.693 97.8882 178.752Z" fill="white"/>
<path opacity="0.46" d="M114.517 184.558V183.452C114.517 183.291 114.453 183.136 114.339 183.022C114.225 182.908 114.07 182.844 113.909 182.844H113.088C112.959 182.284 112.737 181.749 112.431 181.263L113.039 180.655C113.147 180.542 113.207 180.392 113.207 180.236C113.207 180.079 113.147 179.929 113.039 179.816L112.255 179.032C112.142 178.924 111.992 178.864 111.836 178.864C111.679 178.864 111.529 178.924 111.416 179.032L110.808 179.64C110.321 179.337 109.787 179.117 109.227 178.989V178.144C109.227 177.983 109.163 177.828 109.049 177.714C108.935 177.6 108.78 177.536 108.619 177.536H107.507C107.345 177.536 107.191 177.6 107.077 177.714C106.963 177.828 106.899 177.983 106.899 178.144V179.001C106.339 179.129 105.805 179.349 105.318 179.652L104.71 179.044C104.597 178.936 104.447 178.876 104.29 178.876C104.134 178.876 103.984 178.936 103.871 179.044L103.086 179.828C102.979 179.941 102.919 180.091 102.919 180.248C102.919 180.404 102.979 180.554 103.086 180.667L103.694 181.275C103.386 181.76 103.164 182.295 103.038 182.856H102.187C102.025 182.856 101.871 182.92 101.757 183.034C101.643 183.148 101.579 183.303 101.579 183.464V184.571C101.579 184.732 101.643 184.886 101.757 185C101.871 185.114 102.025 185.179 102.187 185.179H103.038C103.164 185.738 103.386 186.27 103.694 186.753L103.086 187.361C102.979 187.474 102.919 187.625 102.919 187.781C102.919 187.937 102.979 188.087 103.086 188.2L103.871 188.979C103.984 189.086 104.134 189.146 104.29 189.146C104.447 189.146 104.597 189.086 104.71 188.979L105.318 188.371C105.805 188.674 106.339 188.894 106.899 189.021V189.878C106.899 190.04 106.963 190.194 107.077 190.308C107.191 190.422 107.345 190.486 107.507 190.486H108.619C108.78 190.486 108.935 190.422 109.049 190.308C109.163 190.194 109.227 190.04 109.227 189.878V189.021C109.787 188.894 110.321 188.674 110.808 188.371L111.416 188.979C111.529 189.086 111.679 189.146 111.836 189.146C111.992 189.146 112.142 189.086 112.255 188.979L113.039 188.2C113.147 188.087 113.207 187.937 113.207 187.781C113.207 187.625 113.147 187.474 113.039 187.361L112.431 186.753C112.737 186.269 112.959 185.737 113.088 185.179H113.939C114.097 185.171 114.246 185.101 114.354 184.986C114.462 184.87 114.52 184.717 114.517 184.558ZM108.327 186.528C107.807 186.582 107.282 186.473 106.825 186.217C106.369 185.96 106.003 185.569 105.778 185.096C105.553 184.623 105.48 184.092 105.569 183.576C105.658 183.06 105.904 182.584 106.274 182.214C106.645 181.843 107.121 181.597 107.637 181.508C108.153 181.419 108.684 181.492 109.157 181.717C109.629 181.942 110.021 182.308 110.278 182.764C110.534 183.221 110.643 183.746 110.589 184.267C110.529 184.846 110.272 185.387 109.86 185.799C109.448 186.211 108.907 186.469 108.327 186.528Z" fill="white"/>
<path d="M115.703 154.602H92.9633C92.894 154.602 92.8275 154.575 92.7785 154.526C92.7294 154.477 92.7019 154.41 92.7019 154.341C92.7019 154.271 92.7292 154.204 92.7781 154.154C92.827 154.104 92.8934 154.075 92.9633 154.073H115.703C115.773 154.073 115.842 154.101 115.892 154.152C115.942 154.202 115.97 154.27 115.97 154.341C115.968 154.411 115.94 154.477 115.89 154.526C115.84 154.575 115.772 154.602 115.703 154.602Z" fill="#263238"/>
<path d="M115.703 157.885H92.9633C92.8934 157.884 92.827 157.855 92.7781 157.805C92.7292 157.755 92.7019 157.688 92.7019 157.618C92.7019 157.549 92.7294 157.482 92.7785 157.433C92.8275 157.384 92.894 157.356 92.9633 157.356H115.703C115.772 157.356 115.84 157.384 115.89 157.433C115.94 157.482 115.968 157.548 115.97 157.618C115.97 157.689 115.942 157.757 115.892 157.807C115.842 157.857 115.773 157.885 115.703 157.885Z" fill="#263238"/>
<path d="M115.703 161.163H92.9633C92.894 161.163 92.8275 161.135 92.7785 161.086C92.7294 161.037 92.7019 160.97 92.7019 160.901C92.7019 160.831 92.7292 160.764 92.7781 160.714C92.827 160.664 92.8934 160.635 92.9633 160.634H115.703C115.773 160.634 115.842 160.662 115.892 160.712C115.942 160.762 115.97 160.83 115.97 160.901C115.968 160.971 115.94 161.037 115.89 161.086C115.84 161.135 115.772 161.163 115.703 161.163Z" fill="#263238"/>
<path d="M115.703 164.446H92.9633C92.8934 164.444 92.827 164.415 92.7781 164.365C92.7292 164.315 92.7019 164.248 92.7019 164.178C92.7019 164.109 92.7294 164.042 92.7785 163.993C92.8275 163.944 92.894 163.917 92.9633 163.917H115.703C115.772 163.917 115.84 163.944 115.89 163.993C115.94 164.042 115.968 164.108 115.97 164.178C115.97 164.249 115.942 164.317 115.892 164.367C115.842 164.418 115.773 164.446 115.703 164.446Z" fill="#263238"/>
<path d="M211.08 115.034H90.4524C89.1226 115.034 88.0447 116.112 88.0447 117.441V117.715C88.0447 119.045 89.1226 120.123 90.4524 120.123H211.08C212.409 120.123 213.487 119.045 213.487 117.715V117.441C213.487 116.112 212.409 115.034 211.08 115.034Z" fill="#FFCC04"/>
<path d="M211.08 131.814H90.4524C89.1226 131.814 88.0447 132.892 88.0447 134.222V134.496C88.0447 135.825 89.1226 136.903 90.4524 136.903H211.08C212.409 136.903 213.487 135.825 213.487 134.496V134.222C213.487 132.892 212.409 131.814 211.08 131.814Z" fill="#FFCC04"/>
<path d="M144.266 219.962L144.528 214.423H136.606L136.077 219.962H144.266Z" fill="#263238"/>
<path d="M144.558 220.266H135.742L136.35 214.119H144.862L144.558 220.266ZM136.411 219.658H143.975L144.212 214.727H136.879L136.411 219.658Z" fill="white"/>
<path d="M160.646 219.962L160.378 214.423H152.45L152.456 219.962H160.646Z" fill="#263238"/>
<path d="M160.968 220.266H152.152V214.119H160.664L160.968 220.266ZM152.76 219.658H160.324L160.086 214.727H152.754L152.76 219.658Z" fill="white"/>
<path d="M203.297 225.878H211.773L209.784 219.962H201.595L203.297 225.878Z" fill="#263238"/>
<path d="M212.192 226.176H203.072L201.187 219.652H210.003L212.192 226.176ZM203.528 225.568H211.347L209.565 220.26H201.996L203.528 225.568Z" fill="white"/>
<path d="M136.076 219.962L136.605 214.423H128.677L127.887 219.962H136.076Z" fill="#263238"/>
<path d="M136.356 220.266H127.54L128.416 214.119H136.928L136.356 220.266ZM128.239 219.658H135.803L136.271 214.727H128.975L128.239 219.658Z" fill="white"/>
<path d="M119.697 219.962L120.755 214.423H112.827L111.507 219.962H119.697Z" fill="#263238"/>
<path d="M119.952 220.266H111.124L112.59 214.119H121.102L119.952 220.266ZM111.896 219.658H119.448L120.384 214.727H113.088L111.896 219.658Z" fill="white"/>
<path d="M193.405 219.962L192.073 214.423H184.151L185.215 219.962H193.405Z" fill="#263238"/>
<path d="M193.788 220.266H184.96L183.78 214.119H192.292L193.788 220.266ZM185.464 219.658H193.016L191.836 214.727H184.54L185.464 219.658Z" fill="white"/>
<path d="M201.595 219.962L199.995 214.423H192.073L193.405 219.962H201.595Z" fill="#263238"/>
<path d="M201.996 220.266H193.162L191.69 214.119H200.202L201.996 220.266ZM193.642 219.658H201.187L199.771 214.727H192.475L193.642 219.658Z" fill="white"/>
<path d="M111.507 219.962L112.827 214.423H104.905L103.318 219.962H111.507Z" fill="#263238"/>
<path d="M111.75 220.266H102.916L104.673 214.119H113.216L111.75 220.266ZM103.725 219.658H111.264L112.438 214.727H105.142L103.725 219.658Z" fill="white"/>
<path d="M168.836 219.962L168.301 214.423H160.378L160.646 219.962H168.836Z" fill="#263238"/>
<path d="M169.17 220.266H160.354L160.056 214.119H168.568L169.17 220.266ZM160.938 219.658H168.501L168.027 214.727H160.695L160.938 219.658Z" fill="white"/>
<path d="M209.784 219.962L207.924 214.423H199.996L201.595 219.962H209.784Z" fill="#263238"/>
<path d="M210.204 220.266H201.364L199.594 214.119H208.143L210.204 220.266ZM201.82 219.658H209.359L207.705 214.727H200.409L201.82 219.658Z" fill="white"/>
<path d="M185.215 219.962L184.151 214.423H176.223L177.025 219.962H185.215Z" fill="#263238"/>
<path d="M185.58 220.266H176.764L175.876 214.119H184.388L185.58 220.266ZM177.287 219.658H184.832L183.884 214.727H176.588L177.287 219.658Z" fill="white"/>
<path d="M177.025 219.962L176.223 214.423H168.301L168.836 219.962H177.025Z" fill="#263238"/>
<path d="M177.378 220.266H168.562L167.954 214.119H176.466L177.378 220.266ZM169.109 219.658H176.673L175.961 214.727H168.635L169.109 219.658Z" fill="white"/>
<path d="M152.456 219.962L152.45 214.423H144.528L144.266 219.962H152.456Z" fill="#263238"/>
<path d="M152.76 220.266H143.95L144.236 214.119H152.748L152.76 220.266ZM144.589 219.658H152.152V214.727H144.82L144.589 219.658Z" fill="white"/>
<path d="M95.1339 219.962H86.9441L84.6824 225.878H93.1518L95.1339 219.962Z" fill="#263238"/>
<path d="M93.3707 226.176H84.2507L86.7435 219.652H95.5656L93.3707 226.176ZM85.1202 225.568H92.933L94.7083 220.26H87.1509L85.1202 225.568Z" fill="white"/>
<path d="M96.9822 214.423H89.0539L86.9441 219.962H95.1339L96.9822 214.423Z" fill="#263238"/>
<path d="M95.3466 220.266H86.5002L88.8471 214.119H97.4017L95.3466 220.266ZM87.3818 219.658H94.9089L96.5566 214.727H89.2606L87.3818 219.658Z" fill="white"/>
<path d="M103.317 219.962L104.904 214.423H96.9821L95.1338 219.962H103.317Z" fill="#263238"/>
<path d="M103.549 220.266H94.7083L96.7633 214.119H105.275L103.549 220.266ZM95.5534 219.658H103.093L104.503 214.727H97.2071L95.5534 219.658Z" fill="white"/>
<path d="M82.2563 232.22L79.6541 239.035H88.7558L91.0358 232.22H82.2563Z" fill="#263238"/>
<path d="M88.9747 239.339H79.2102L82.08 231.916H91.4857L88.9747 239.339ZM80.0918 238.731H88.5369L90.592 232.524H82.4691L80.0918 238.731Z" fill="white"/>
<path d="M93.1517 225.878H84.6823L82.2563 232.22H91.0359L93.1517 225.878Z" fill="#263238"/>
<path d="M91.2547 232.524H81.8125L84.4695 225.568H93.5895L91.2547 232.524ZM82.7002 231.916H90.817L92.7322 226.182H84.889L82.7002 231.916Z" fill="white"/>
<path d="M91.0359 232.22L88.7559 239.035H97.8576L99.8093 232.22H91.0359Z" fill="#263238"/>
<path d="M98.0888 239.339H88.3608L90.8415 231.916H100.235L98.0888 239.339ZM89.1756 238.731H97.6268L99.4082 232.524H91.2549L89.1756 238.731Z" fill="white"/>
<path d="M127.887 219.962L128.677 214.423H120.755L119.697 219.962H127.887Z" fill="#263238"/>
<path d="M128.154 220.266H119.332L120.5 214.119H129.012L128.154 220.266ZM120.068 219.658H127.625L128.325 214.727H120.992L120.068 219.658Z" fill="white"/>
<path d="M127.042 225.878L127.887 219.962H119.697L118.572 225.878H127.042Z" fill="#263238"/>
<path d="M127.309 226.176H118.189L119.436 219.652H128.227L127.309 226.176ZM118.937 225.568H126.78L127.54 220.26H119.952L118.937 225.568Z" fill="white"/>
<path d="M118.572 225.878L119.697 219.962H111.507L110.097 225.878H118.572Z" fill="#263238"/>
<path d="M118.821 226.176H109.701L111.264 219.658H120.062L118.821 226.176ZM110.486 225.568H118.317L119.332 220.26H111.75L110.486 225.568Z" fill="white"/>
<path d="M135.517 225.878L136.077 219.962H127.887L127.042 225.878H135.517Z" fill="#263238"/>
<path d="M135.791 226.176H126.671L127.601 219.652H136.387L135.791 226.176ZM127.394 225.568H135.238L135.742 220.26H128.154L127.394 225.568Z" fill="white"/>
<path d="M103.318 219.962H95.1339L93.1519 225.878H101.627L103.318 219.962Z" fill="#263238"/>
<path d="M101.852 226.176H92.7322L94.9088 219.652H103.725L101.852 226.176ZM93.5773 225.568H101.396L102.916 220.26H95.3466L93.5773 225.568Z" fill="white"/>
<path d="M205.127 232.22H213.901L211.773 225.878H203.297L205.127 232.22Z" fill="#263238"/>
<path d="M214.326 232.524H204.896L202.896 225.568H212.016L214.326 232.524ZM205.352 231.916H213.481L211.584 226.176H203.68L205.352 231.916Z" fill="white"/>
<path d="M110.097 225.878L111.507 219.962H103.317L101.627 225.878H110.097Z" fill="#263238"/>
<path d="M110.34 226.176H101.22L103.093 219.652H111.872L110.34 226.176ZM102.029 225.568H109.86L111.124 220.26H103.549L102.029 225.568Z" fill="white"/>
<path d="M93.1517 225.878L91.0359 232.22H99.8093L101.627 225.878H93.1517Z" fill="#263238"/>
<path d="M100.04 232.524H90.592L92.9328 225.568H102.053L100.04 232.524ZM91.4554 231.916H99.5783L101.22 226.182H93.3706L91.4554 231.916Z" fill="white"/>
<path d="M186.352 225.878L185.215 219.962H177.025L177.883 225.878H186.352Z" fill="#263238"/>
<path d="M186.723 226.176H177.603L176.661 219.652H185.44L186.723 226.176ZM178.144 225.568H185.987L184.96 220.26H177.378L178.144 225.568Z" fill="white"/>
<path d="M177.883 225.878L177.025 219.962H168.836L169.407 225.878H177.883Z" fill="#263238"/>
<path d="M178.229 226.176H169.109L168.501 219.652H177.287L178.229 226.176ZM169.681 225.568H177.536L176.77 220.26H169.17L169.681 225.568Z" fill="white"/>
<path d="M203.297 225.878L201.595 219.962H193.405L194.828 225.878H203.297Z" fill="#263238"/>
<path d="M203.68 226.176H194.56L192.991 219.652H201.795L203.68 226.176ZM195.04 225.568H202.871L201.339 220.26H193.788L195.04 225.568Z" fill="white"/>
<path d="M152.462 225.878L152.456 219.962H144.266L143.987 225.878H152.462Z" fill="#263238"/>
<path d="M152.766 226.176H143.646L143.95 219.652H152.736L152.766 226.176ZM144.309 225.568H152.158V220.26H144.558L144.309 225.568Z" fill="white"/>
<path d="M169.407 225.878L168.836 219.962H160.646L160.932 225.878H169.407Z" fill="#263238"/>
<path d="M169.742 226.176H160.622L160.299 219.652H169.085L169.742 226.176ZM161.23 225.568H169.079L168.568 220.26H160.968L161.23 225.568Z" fill="white"/>
<path d="M160.932 225.878L160.646 219.962H152.456L152.462 225.878H160.932Z" fill="#263238"/>
<path d="M161.254 226.176H152.134V219.658H160.938L161.254 226.176ZM152.742 225.568H160.591L160.33 220.26H152.76L152.742 225.568Z" fill="white"/>
<path d="M143.987 225.878L144.266 219.962H136.076L135.517 225.878H143.987Z" fill="#263238"/>
<path d="M144.278 226.176H135.158L135.766 219.652H144.552L144.278 226.176ZM135.852 225.568H143.701L143.95 220.26H136.356L135.852 225.568Z" fill="white"/>
<path d="M169.407 225.878L170.021 232.22H178.795L177.883 225.878H169.407Z" fill="#263238"/>
<path d="M179.147 232.524H169.742L169.073 225.568H178.144L179.147 232.524ZM170.295 231.916H178.448L177.615 226.176H169.742L170.295 231.916Z" fill="white"/>
<path d="M177.883 225.878L178.795 232.22H187.574L186.352 225.878H177.883Z" fill="#263238"/>
<path d="M187.939 232.524H178.533L177.536 225.568H186.608L187.939 232.524ZM179.062 231.916H187.203L186.103 226.176H178.229L179.062 231.916Z" fill="white"/>
<path d="M101.627 225.878L99.8093 232.22H108.583L110.097 225.878H101.627Z" fill="#263238"/>
<path d="M108.832 232.524H99.408L101.396 225.568H110.486L108.832 232.524ZM100.217 231.916H108.346L109.714 226.182H101.852L100.217 231.916Z" fill="white"/>
<path d="M186.352 225.878L187.574 232.22H196.348L194.828 225.878H186.352Z" fill="#263238"/>
<path d="M196.737 232.524H187.325L185.987 225.568H195.065L196.737 232.524ZM187.823 231.916H195.965L194.56 226.176H186.723L187.823 231.916Z" fill="white"/>
<path d="M152.462 225.878L152.468 232.22H161.242L160.932 225.878H152.462Z" fill="#263238"/>
<path d="M161.564 232.524H152.164V225.568H161.23L161.564 232.524ZM152.772 231.916H160.926L160.646 226.182H152.742L152.772 231.916Z" fill="white"/>
<path d="M194.828 225.878L196.348 232.22H205.127L203.297 225.878H194.828Z" fill="#263238"/>
<path d="M205.504 232.524H196.11L194.438 225.568H203.528L205.504 232.524ZM196.566 231.916H204.695L203.072 226.176H195.211L196.566 231.916Z" fill="white"/>
<path d="M160.932 225.878L161.242 232.22H170.021L169.407 225.878H160.932Z" fill="#263238"/>
<path d="M170.356 232.524H160.956L160.615 225.568H169.681L170.356 232.524ZM161.534 231.916H169.687L169.134 226.182H161.23L161.534 231.916Z" fill="white"/>
<path d="M118.572 225.878L117.362 232.22H126.142L127.042 225.878H118.572Z" fill="#263238"/>
<path d="M126.403 232.524H116.998L118.317 225.568H127.394L126.403 232.524ZM117.727 231.916H125.856L126.677 226.182H118.822L117.727 231.916Z" fill="white"/>
<path d="M110.097 225.878L108.583 232.22H117.362L118.572 225.878H110.097Z" fill="#263238"/>
<path d="M117.612 232.524H108.224L109.86 225.568H118.937L117.612 232.524ZM108.972 231.916H117.113L118.201 226.182H110.34L108.972 231.916Z" fill="white"/>
<path d="M143.987 225.878L143.695 232.22H152.468L152.462 225.878H143.987Z" fill="#263238"/>
<path d="M152.772 232.524H143.373L143.701 225.574H152.766L152.772 232.524ZM144.011 231.916H152.164V226.176H144.26L144.011 231.916Z" fill="white"/>
<path d="M135.517 225.878L134.915 232.22H143.695L143.987 225.878H135.517Z" fill="#263238"/>
<path d="M143.98 232.524H134.581L135.237 225.568H144.309L143.98 232.524ZM135.25 231.916H143.403L143.67 226.182H135.766L135.25 231.916Z" fill="white"/>
<path d="M127.042 225.878L126.142 232.22H134.915L135.517 225.878H127.042Z" fill="#263238"/>
<path d="M135.189 232.524H125.789L126.78 225.568H135.852L135.189 232.524ZM126.489 231.916H134.636L135.183 226.182H127.279L126.489 231.916Z" fill="white"/>
<path d="M194.828 225.878L193.405 219.962H185.215L186.352 225.878H194.828Z" fill="#263238"/>
<path d="M195.211 226.176H186.091L184.832 219.658H193.63L195.211 226.176ZM186.601 225.568H194.438L193.162 220.26H185.58L186.601 225.568Z" fill="white"/>
<path d="M96.9823 214.423L98.8732 208.757H91.2184L89.054 214.423H96.9823Z" fill="#263238"/>
<path d="M97.2009 214.727H88.616L91.0115 208.453H99.2985L97.2009 214.727ZM89.4976 214.119H96.7936L98.4838 209.061H91.431L89.4976 214.119Z" fill="white"/>
<path d="M89.0539 214.423H81.7397L79.3806 219.962H86.9441L89.0539 214.423Z" fill="#263238"/>
<path d="M87.1508 220.266H78.9246L81.539 214.119H89.4977L87.1508 220.266ZM79.8548 219.658H86.7434L88.6282 214.727H81.9402L79.8548 219.658Z" fill="white"/>
<path d="M91.2182 208.757H84.1533L81.7395 214.423H89.0537L91.2182 208.757Z" fill="#263238"/>
<path d="M89.2667 214.727H81.2837L83.9528 208.453H91.6622L89.2667 214.727ZM82.2018 214.119H88.8472L90.7806 209.061H84.3602L82.2018 214.119Z" fill="white"/>
<path d="M86.9441 219.962H79.3806L76.8574 225.878H84.6824L86.9441 219.962Z" fill="#263238"/>
<path d="M84.8889 226.176H76.377L79.1555 219.652H87.3574L84.8889 226.176ZM77.3194 225.568H84.4694L86.5002 220.26H79.5811L77.3194 225.568Z" fill="white"/>
<path d="M84.6824 225.878H76.8575L74.158 232.22H82.2565L84.6824 225.878Z" fill="#263238"/>
<path d="M82.4692 232.524H73.6958L76.6568 225.568H85.1201L82.4692 232.524ZM74.6139 231.916H82.0801L84.2689 226.182H77.058L74.6139 231.916Z" fill="white"/>
<path d="M82.2565 232.22H74.1579L71.2517 239.035H79.6543L82.2565 232.22Z" fill="#263238"/>
<path d="M79.8609 239.339H70.7896L73.9572 231.916H82.6881L79.8609 239.339ZM71.7137 238.731H79.4414L81.8126 232.524H74.3585L71.7137 238.731Z" fill="white"/>
<path d="M217.974 219.962L220.242 225.878H227.739L225.215 219.962H217.974Z" fill="#263238"/>
<path d="M228.201 226.176H220.035L217.53 219.652H225.434L228.201 226.176ZM220.455 225.568H227.277L225.015 220.26H218.412L220.455 225.568Z" fill="white"/>
<path d="M222.68 232.22H230.444L227.739 225.878H220.242L222.68 232.22Z" fill="#263238"/>
<path d="M230.9 232.524H222.467L219.804 225.568H227.939L230.9 232.524ZM222.887 231.916H229.982L227.55 226.182H220.704L222.887 231.916Z" fill="white"/>
<path d="M225.295 239.035H233.345L230.444 232.22H222.68L225.295 239.035Z" fill="#263238"/>
<path d="M233.807 239.339H225.088L222.236 231.916H230.645L233.807 239.339ZM225.501 238.731H232.864L230.219 232.524H223.136L225.501 238.731Z" fill="white"/>
<path d="M160.378 214.423L160.099 208.757H152.444L152.45 214.423H160.378Z" fill="#263238"/>
<path d="M160.694 214.727H152.146V208.453H160.39L160.694 214.727ZM152.754 214.119H160.05L159.801 209.061H152.748L152.754 214.119Z" fill="white"/>
<path d="M217.974 219.962H225.215L222.856 214.423H215.846L217.974 219.962Z" fill="#263238"/>
<path d="M225.678 220.266H217.774L215.415 214.119H223.069L225.678 220.266ZM218.181 219.658H224.753L222.656 214.727H216.29L218.181 219.658Z" fill="white"/>
<path d="M213.9 232.22H222.68L220.242 225.878H211.772L213.9 232.22Z" fill="#263238"/>
<path d="M223.136 232.524H213.682L211.347 225.568H220.467L223.136 232.524ZM214.132 231.916H222.248L220.035 226.176H212.192L214.132 231.916Z" fill="white"/>
<path d="M104.904 214.423L106.528 208.757H98.8731L96.9822 214.423H104.904Z" fill="#263238"/>
<path d="M105.136 214.727H96.5566L98.6542 208.453H106.929L105.136 214.727ZM97.4018 214.119H104.698L106.151 209.061H99.1042L97.4018 214.119Z" fill="white"/>
<path d="M207.924 214.423L209.784 219.962H217.974L215.846 214.423H207.924Z" fill="#263238"/>
<path d="M218.412 220.266H209.565L207.498 214.119H216.053L218.412 220.266ZM210.003 219.658H217.53L215.639 214.727H208.343L210.003 219.658Z" fill="white"/>
<path d="M222.856 214.423L220.443 208.757H213.669L215.846 214.423H222.856Z" fill="#263238"/>
<path d="M223.319 214.727H215.64L213.208 208.453H220.643L223.319 214.727ZM216.053 214.119H222.394L220.242 209.061H214.113L216.053 214.119Z" fill="white"/>
<path d="M215.846 214.423L213.67 208.757H206.021L207.924 214.423H215.846Z" fill="#263238"/>
<path d="M216.29 214.727H207.705L205.595 208.453H213.882L216.29 214.727ZM208.143 214.119H215.402L213.463 209.061H206.44L208.143 214.119Z" fill="white"/>
<path d="M187.574 232.22L188.888 239.035H197.989L196.348 232.22H187.574Z" fill="#263238"/>
<path d="M198.372 239.339H188.644L187.215 231.916H196.603L198.372 239.339ZM189.137 238.731H197.6L196.11 232.524H187.939L189.137 238.731Z" fill="white"/>
<path d="M216.193 239.035H225.295L222.68 232.22H213.901L216.193 239.035Z" fill="#263238"/>
<path d="M225.738 239.339H215.974L213.481 231.916H222.887L225.738 239.339ZM216.412 238.731H224.851L222.467 232.524H214.326L216.412 238.731Z" fill="white"/>
<path d="M207.924 214.423L206.021 208.757H198.366L199.996 214.423H207.924Z" fill="#263238"/>
<path d="M208.343 214.727H199.771L197.947 208.453H206.227L208.343 214.727ZM200.227 214.119H207.523L205.826 209.061H198.767L200.227 214.119Z" fill="white"/>
<path d="M205.127 232.22L207.091 239.035H216.193L213.901 232.22H205.127Z" fill="#263238"/>
<path d="M216.612 239.339H206.884L204.744 231.916H214.144L216.612 239.339ZM207.316 238.731H215.767L213.682 232.524H205.504L207.316 238.731Z" fill="white"/>
<path d="M196.348 232.22L197.989 239.035H207.091L205.127 232.22H196.348Z" fill="#263238"/>
<path d="M207.492 239.339H197.764L195.983 231.916H205.37L207.492 239.339ZM198.226 238.731H206.684L204.896 232.524H196.737L198.226 238.731Z" fill="white"/>
<path d="M211.773 225.878H220.242L217.974 219.962H209.784L211.773 225.878Z" fill="#263238"/>
<path d="M220.704 226.176H211.584L209.389 219.652H218.211L220.704 226.176ZM212.01 225.568H219.822L217.78 220.26H210.204L212.01 225.568Z" fill="white"/>
<path d="M136.606 214.423L137.141 208.757H129.486L128.677 214.423H136.606Z" fill="#263238"/>
<path d="M136.879 214.727H128.324L129.224 208.453H137.475L136.879 214.727ZM129.03 214.119H136.326L136.806 209.061H129.753L129.03 214.119Z" fill="white"/>
<path d="M199.996 214.423L198.366 208.757H190.711L192.073 214.423H199.996Z" fill="#263238"/>
<path d="M200.403 214.727H191.836L190.304 208.453H198.567L200.403 214.727ZM192.311 214.119H199.607L198.147 209.061H191.101L192.311 214.119Z" fill="white"/>
<path d="M128.677 214.423L129.486 208.757H121.831L120.755 214.423H128.677Z" fill="#263238"/>
<path d="M128.945 214.727H120.384L121.6 208.453H129.857L128.945 214.727ZM121.12 214.119H128.416L129.139 209.061H122.086L121.12 214.119Z" fill="white"/>
<path d="M152.45 214.423L152.444 208.757H144.795L144.528 214.423H152.45Z" fill="#263238"/>
<path d="M152.754 214.727H144.212L144.504 208.453H152.748L152.754 214.727ZM144.85 214.119H152.146V209.061H145.081L144.85 214.119Z" fill="white"/>
<path d="M120.755 214.423L121.831 208.757H114.182L112.827 214.423H120.755Z" fill="#263238"/>
<path d="M120.992 214.727H112.444L113.939 208.453H122.208L120.992 214.727ZM113.204 214.119H120.5L121.466 209.061H114.42L113.204 214.119Z" fill="white"/>
<path d="M112.827 214.423L114.182 208.757H106.528L104.904 214.423H112.827Z" fill="#263238"/>
<path d="M113.088 214.727H104.503L106.327 208.453H114.596L113.088 214.727ZM105.324 214.119H112.62L113.836 209.061H106.759L105.324 214.119Z" fill="white"/>
<path d="M144.528 214.423L144.795 208.757H137.141L136.605 214.423H144.528Z" fill="#263238"/>
<path d="M144.82 214.727H136.271L136.879 208.453H145.13L144.82 214.727ZM136.916 214.119H144.212L144.449 209.061H137.408L136.916 214.119Z" fill="white"/>
<path d="M192.073 214.423L190.711 208.757H183.057L184.151 214.423H192.073Z" fill="#263238"/>
<path d="M192.456 214.727H183.896L182.68 208.453H190.942L192.456 214.727ZM184.4 214.119H191.696L190.48 209.061H183.428L184.4 214.119Z" fill="white"/>
<path d="M184.151 214.423L183.057 208.757H175.408L176.223 214.423H184.151Z" fill="#263238"/>
<path d="M184.516 214.727H175.961L175.055 208.453H183.312L184.516 214.727ZM176.49 214.119H183.786L182.813 209.061H175.761L176.49 214.119Z" fill="white"/>
<path d="M168.301 214.423L167.753 208.757H160.099L160.378 214.423H168.301Z" fill="#263238"/>
<path d="M168.635 214.727H160.086L159.782 208.453H168.027L168.635 214.727ZM160.664 214.119H167.96L167.468 209.061H160.415L160.664 214.119Z" fill="white"/>
<path d="M187.574 232.22H178.795H170.021H161.242H152.468H143.695H134.915H126.142H117.362H108.583H99.8094L97.8577 239.035H106.959H116.061H125.169H134.271H143.373H152.474H161.576H170.678H179.78H188.887L187.574 232.22Z" fill="#263238"/>
<path d="M189.252 239.339H97.4443L99.5662 231.916H187.824L189.252 239.339ZM98.2591 238.731H188.517L187.301 232.524H100.04L98.2591 238.731Z" fill="white"/>
<path d="M176.223 214.423L175.408 208.757H167.753L168.301 214.423H176.223Z" fill="#263238"/>
<path d="M176.575 214.727H168.027L167.419 208.453H175.67L176.575 214.727ZM168.574 214.119H175.87L175.134 209.061H168.082L168.574 214.119Z" fill="white"/>
<mask id="mask0_30_2523" style="mask-type:luminance" maskUnits="userSpaceOnUse" x="98" y="86" width="108" height="112">
<path d="M205.461 86.3907H98.2954V197.132H205.461V86.3907Z" fill="white"/>
</mask>
<g mask="url(#mask0_30_2523)">
<path d="M162.409 160.621C171.364 160.621 178.624 151.38 178.624 139.98C178.624 128.58 171.364 119.338 162.409 119.338C153.453 119.338 146.194 128.58 146.194 139.98C146.194 151.38 153.453 160.621 162.409 160.621Z" fill="#263238"/>
<path d="M162.409 160.919C153.289 160.919 145.884 151.526 145.884 139.98C145.884 128.434 153.295 119.034 162.409 119.034C171.523 119.034 178.928 128.428 178.928 139.98C178.928 151.532 171.517 160.919 162.409 160.919ZM162.409 119.642C153.629 119.642 146.492 128.762 146.492 139.98C146.492 151.197 153.629 160.311 162.409 160.311C171.188 160.311 178.32 151.191 178.32 139.98C178.32 128.768 171.182 119.642 162.409 119.642Z" fill="#263238"/>
<path d="M125.856 192.548C124.367 192.548 122.676 191.228 121.776 190.413C120.512 189.264 119.205 187.653 119.205 186.936C119.205 185.908 131.365 149.24 132.769 145.075C132.785 145.026 132.813 144.982 132.85 144.947C132.887 144.912 132.932 144.887 132.982 144.874C133.03 144.862 133.081 144.862 133.13 144.873C133.179 144.885 133.224 144.908 133.262 144.941L137.864 149.142C137.9 149.175 137.928 149.216 137.945 149.261C137.961 149.307 137.967 149.356 137.961 149.404L133.426 189.24C133.42 189.286 133.404 189.33 133.379 189.369C133.354 189.408 133.32 189.441 133.28 189.465C133.091 189.58 128.653 192.28 126.093 192.535L125.856 192.548ZM133.201 145.732C129.37 157.284 119.916 185.86 119.825 186.972C119.825 187.319 120.749 188.675 122.196 189.982C123.643 191.289 125.084 192.043 126.045 191.952C128.239 191.733 132.125 189.489 132.848 189.045L137.353 149.525L133.201 145.732Z" fill="#263238"/>
<path d="M159.935 139.785L133.037 145.166L137.341 198.159H189.8L196.792 143.014L164.774 139.518L159.935 139.785Z" fill="#FFCC04"/>
<path d="M189.8 198.463H137.341C137.265 198.464 137.192 198.435 137.137 198.383C137.081 198.331 137.048 198.259 137.043 198.184L132.733 145.19C132.727 145.116 132.748 145.042 132.793 144.983C132.838 144.924 132.903 144.883 132.976 144.868L159.904 139.487L164.768 139.214L196.828 142.716C196.908 142.725 196.982 142.764 197.035 142.825C197.06 142.858 197.078 142.895 197.088 142.935C197.099 142.974 197.101 143.016 197.096 143.056L190.104 198.208C190.092 198.28 190.055 198.345 189.999 198.392C189.943 198.439 189.872 198.464 189.8 198.463ZM137.627 197.855H189.532L196.451 143.287L164.768 139.84L159.995 140.108L133.383 145.434L137.627 197.855Z" fill="#263238"/>
<mask id="mask1_30_2523" style="mask-type:luminance" maskUnits="userSpaceOnUse" x="133" y="139" width="64" height="60">
<mask id="mask2_30_2523" style="mask-type:luminance" maskUnits="userSpaceOnUse" x="133" y="139" width="64" height="60">
<path d="M159.935 139.785L133.037 145.166L137.341 198.159H189.8L196.792 143.014L164.774 139.518L159.935 139.785Z" fill="white"/>
</mask>
<g mask="url(#mask2_30_2523)">
<path d="M189.8 198.463H137.341C137.265 198.464 137.192 198.435 137.137 198.383C137.081 198.331 137.048 198.259 137.043 198.184L132.733 145.19C132.727 145.116 132.748 145.042 132.793 144.983C132.838 144.924 132.903 144.883 132.976 144.868L159.904 139.487L164.768 139.214L196.828 142.716C196.908 142.725 196.982 142.764 197.035 142.825C197.06 142.858 197.078 142.895 197.088 142.935C197.099 142.974 197.101 143.016 197.096 143.056L190.104 198.208C190.092 198.28 190.055 198.345 189.999 198.392C189.943 198.439 189.872 198.464 189.8 198.463ZM137.627 197.855H189.532L196.451 143.287L164.768 139.84L159.995 140.108L133.383 145.434L137.627 197.855Z" fill="white"/>
</g>
</mask>
<g mask="url(#mask1_30_2523)">
<path opacity="0.3" d="M137.341 198.159H189.799L191.119 187.781L191.022 187.276L178.363 190.036L183.884 166.799L153.508 180.144L146.145 187.507H150.748L137.201 196.42L137.341 198.159Z" fill="black"/>
</g>
<path d="M157.077 136.8C157.077 136.8 152.712 139.189 151.605 141.336C150.498 143.482 145.92 159.424 145.92 159.424L153.453 161.041L146.194 164.537L157.18 196.007L174.666 194.931L186.048 161.844L179.05 158.889L185.24 156.195C185.24 156.195 179.324 144.899 176.12 140.059C172.915 135.219 157.077 136.8 157.077 136.8Z" fill="#FFCC04"/>
<path d="M157.205 196.311C157.142 196.311 157.081 196.292 157.03 196.256C156.979 196.22 156.94 196.169 156.919 196.11L145.92 164.634C145.897 164.564 145.9 164.487 145.929 164.419C145.958 164.35 146.011 164.295 146.078 164.263L152.541 161.15L145.853 159.722C145.812 159.713 145.773 159.696 145.739 159.672C145.704 159.648 145.675 159.617 145.653 159.582C145.631 159.545 145.617 159.505 145.612 159.463C145.607 159.421 145.61 159.379 145.622 159.339C145.811 158.688 150.255 143.354 151.331 141.202C152.407 139.05 156.718 136.636 156.901 136.532C156.936 136.513 156.976 136.503 157.016 136.502C157.667 136.435 173.006 134.952 176.296 139.889C179.5 144.686 185.416 155.946 185.458 156.055C185.476 156.093 185.485 156.135 185.485 156.177C185.485 156.219 185.476 156.261 185.458 156.299C185.446 156.338 185.425 156.375 185.396 156.405C185.368 156.436 185.333 156.46 185.294 156.475L179.755 158.907L186.097 161.588C186.168 161.619 186.225 161.676 186.256 161.747C186.288 161.817 186.292 161.898 186.267 161.971L174.928 195.059C174.908 195.114 174.872 195.163 174.824 195.199C174.776 195.235 174.719 195.256 174.66 195.259L157.174 196.335L157.205 196.311ZM146.589 164.695L157.417 195.703L174.441 194.657L185.622 162.026L178.892 159.18C178.836 159.158 178.789 159.119 178.755 159.069C178.722 159.019 178.704 158.961 178.703 158.901C178.704 158.842 178.721 158.784 178.754 158.734C178.786 158.685 178.832 158.645 178.886 158.621L184.777 156.061C183.829 154.237 178.697 144.582 175.797 140.253C172.806 135.766 158.22 137.031 157.144 137.128C156.645 137.408 152.839 139.56 151.878 141.506C150.918 143.452 146.96 156.986 146.303 159.229L153.52 160.773C153.582 160.787 153.638 160.819 153.68 160.866C153.723 160.913 153.75 160.972 153.757 161.035C153.763 161.098 153.75 161.161 153.719 161.216C153.689 161.271 153.643 161.316 153.587 161.345L146.589 164.695Z" fill="#263238"/>
<path d="M156.396 198.7L156.171 143.287L170.696 141.938L174.958 198.159L156.396 198.7Z" fill="white"/>
<path d="M156.396 199.004C156.317 199.004 156.241 198.973 156.183 198.919C156.126 198.861 156.093 198.782 156.092 198.7L155.867 143.287C155.865 143.211 155.893 143.138 155.943 143.081C155.994 143.024 156.065 142.99 156.141 142.983L170.666 141.664C170.706 141.658 170.747 141.661 170.786 141.673C170.824 141.684 170.86 141.704 170.891 141.731C170.954 141.785 170.993 141.861 171 141.944L175.256 198.165C175.258 198.206 175.253 198.247 175.239 198.286C175.226 198.324 175.204 198.36 175.177 198.39C175.15 198.421 175.116 198.446 175.078 198.463C175.04 198.479 175 198.488 174.958 198.488L156.402 199.029L156.396 199.004ZM156.475 143.561L156.7 198.384L174.63 197.868L170.416 142.272L156.475 143.561Z" fill="#263238"/>
<path d="M154.019 128.756C154.019 128.756 155.897 139.25 156.171 141.938C156.444 144.625 163.388 163.734 165.467 160.615C167.735 157.217 170.428 146.516 170.939 144.09C171.45 141.664 171.48 131.182 171.48 131.182C171.48 131.182 164.507 136.022 154.019 128.756Z" fill="white"/>
<path d="M164.92 161.266C164.842 161.264 164.765 161.254 164.689 161.236C161.831 160.524 156.128 144.564 155.867 141.968C155.605 139.372 153.739 128.92 153.715 128.811C153.704 128.751 153.71 128.69 153.734 128.635C153.758 128.579 153.798 128.532 153.849 128.499C153.9 128.467 153.96 128.45 154.02 128.451C154.081 128.453 154.139 128.472 154.189 128.507C164.391 135.572 171.261 130.975 171.328 130.939C171.376 130.911 171.431 130.896 171.486 130.896C171.542 130.896 171.597 130.911 171.645 130.939C171.694 130.966 171.735 131.005 171.764 131.053C171.793 131.102 171.808 131.156 171.809 131.212C171.809 131.638 171.809 141.761 171.261 144.187C170.653 146.826 168.021 157.369 165.723 160.816C165.638 160.953 165.519 161.065 165.379 161.144C165.239 161.223 165.081 161.265 164.92 161.266ZM154.432 129.413C154.858 131.845 156.256 139.615 156.457 141.907C156.718 144.528 162.482 160.062 164.823 160.646C164.932 160.646 165.06 160.646 165.206 160.451C167.425 157.113 170.112 146.467 170.678 144.035C171.134 141.986 171.201 133.869 171.207 131.717C169.456 132.611 163.133 135.122 154.432 129.413Z" fill="#263238"/>
<mask id="mask3_30_2523" style="mask-type:luminance" maskUnits="userSpaceOnUse" x="154" y="128" width="18" height="33">
<mask id="mask4_30_2523" style="mask-type:luminance" maskUnits="userSpaceOnUse" x="154" y="128" width="18" height="33">
<path d="M154.019 128.756C154.019 128.756 155.897 139.25 156.171 141.938C156.444 144.625 163.388 163.734 165.467 160.615C167.735 157.217 170.428 146.516 170.939 144.09C171.45 141.664 171.48 131.182 171.48 131.182C171.48 131.182 164.507 136.022 154.019 128.756Z" fill="white"/>
</mask>
<g mask="url(#mask4_30_2523)">
<path d="M164.92 161.266C164.842 161.264 164.765 161.254 164.689 161.236C161.831 160.524 156.128 144.564 155.867 141.968C155.605 139.372 153.739 128.92 153.715 128.811C153.704 128.751 153.71 128.69 153.734 128.635C153.758 128.579 153.798 128.532 153.849 128.499C153.9 128.467 153.96 128.45 154.02 128.451C154.081 128.453 154.139 128.472 154.189 128.507C164.391 135.572 171.261 130.975 171.328 130.939C171.376 130.911 171.431 130.896 171.486 130.896C171.542 130.896 171.597 130.911 171.645 130.939C171.694 130.966 171.735 131.005 171.764 131.053C171.793 131.102 171.808 131.156 171.809 131.212C171.809 131.638 171.809 141.761 171.261 144.187C170.653 146.826 168.021 157.369 165.723 160.816C165.638 160.953 165.519 161.065 165.379 161.144C165.239 161.223 165.081 161.265 164.92 161.266ZM154.432 129.413C154.858 131.845 156.256 139.615 156.457 141.907C156.718 144.528 162.482 160.062 164.823 160.646C164.932 160.646 165.06 160.646 165.206 160.451C167.425 157.113 170.112 146.467 170.678 144.035C171.134 141.986 171.201 133.869 171.207 131.717C169.456 132.611 163.133 135.122 154.432 129.413Z" fill="white"/>
</g>
</mask>
<g mask="url(#mask3_30_2523)">
<path d="M171.395 138.156C171.505 134.715 171.505 131.182 171.505 131.182C171.505 131.182 164.507 136.046 154.019 128.75C154.019 128.75 154.791 133.073 155.417 136.879C156.852 138.703 159.582 141.603 162.95 142.144C166.41 142.704 169.206 140.868 171.395 138.156Z" fill="#FFCC04"/>
<path opacity="0.5" d="M171.395 138.156C171.505 134.715 171.505 131.182 171.505 131.182C171.505 131.182 164.507 136.046 154.019 128.75C154.019 128.75 154.791 133.073 155.417 136.879C156.852 138.703 159.582 141.603 162.95 142.144C166.41 142.704 169.206 140.868 171.395 138.156Z" fill="white"/>
</g>
<path d="M177.153 118.268C177.153 118.268 180.108 114.499 180.108 118.803C180.108 123.108 177.153 123.667 177.153 123.667V118.268Z" fill="white"/>
<path d="M177.153 123.953C177.081 123.954 177.012 123.928 176.958 123.88C176.923 123.853 176.895 123.818 176.876 123.778C176.857 123.738 176.848 123.693 176.849 123.649V118.268C176.848 118.2 176.869 118.134 176.91 118.08C177.171 117.751 178.509 116.134 179.53 116.487C180.138 116.693 180.412 117.453 180.412 118.803C180.412 123.308 177.238 123.941 177.208 123.947L177.153 123.953ZM177.457 118.372V123.236C178.193 122.944 179.804 121.94 179.804 118.803C179.804 117.38 179.476 117.113 179.336 117.064C178.886 116.912 177.98 117.733 177.457 118.372Z" fill="#263238"/>
<path d="M147.829 109.391C147.829 109.391 151.325 125.242 151.325 127.412C151.325 131.979 159.935 137.098 163.698 138.174C167.462 139.25 176.612 130.908 177.153 128.756C177.694 126.604 177.956 107.774 176.88 104.011C175.803 100.247 169.632 97.8211 165.583 97.8211C161.534 97.8211 149.714 99.9734 147.829 109.391Z" fill="white"/>
<path d="M164.44 138.575C164.162 138.578 163.886 138.541 163.619 138.466C159.971 137.42 151.021 132.252 151.021 127.412C151.021 125.303 147.568 109.616 147.531 109.458C147.525 109.416 147.525 109.373 147.531 109.331C149.459 99.6877 161.515 97.5171 165.583 97.5171C169.65 97.5171 176.041 99.9491 177.171 103.925C178.302 107.902 177.974 126.719 177.445 128.853C177.05 130.44 172.617 134.824 168.629 137.128C166.939 138.083 165.534 138.575 164.44 138.575ZM148.139 109.391C148.413 110.638 151.629 125.291 151.629 127.419C151.629 131.772 160.074 136.824 163.789 137.888C164.793 138.174 166.361 137.724 168.331 136.587C172.283 134.307 176.533 129.996 176.843 128.683C177.348 126.659 177.652 107.853 176.576 104.096C175.536 100.448 169.365 98.1251 165.571 98.1251C161.649 98.1251 150.03 100.198 148.139 109.385V109.391Z" fill="#263238"/>
<mask id="mask5_30_2523" style="mask-type:luminance" maskUnits="userSpaceOnUse" x="147" y="97" width="31" height="42">
<mask id="mask6_30_2523" style="mask-type:luminance" maskUnits="userSpaceOnUse" x="147" y="97" width="31" height="42">
<path d="M147.829 109.391C147.829 109.391 151.325 125.242 151.325 127.412C151.325 131.979 159.935 137.098 163.698 138.174C167.462 139.25 176.612 130.908 177.153 128.756C177.694 126.604 177.956 107.774 176.88 104.011C175.803 100.247 169.632 97.8211 165.583 97.8211C161.534 97.8211 149.714 99.9734 147.829 109.391Z" fill="white"/>
</mask>
<g mask="url(#mask6_30_2523)">
<path d="M164.44 138.575C164.162 138.578 163.886 138.541 163.619 138.466C159.971 137.42 151.021 132.252 151.021 127.412C151.021 125.303 147.568 109.616 147.531 109.458C147.525 109.416 147.525 109.373 147.531 109.331C149.459 99.6877 161.515 97.5171 165.583 97.5171C169.65 97.5171 176.041 99.9491 177.171 103.925C178.302 107.902 177.974 126.719 177.445 128.853C177.05 130.44 172.617 134.824 168.629 137.128C166.939 138.083 165.534 138.575 164.44 138.575ZM148.139 109.391C148.413 110.638 151.629 125.291 151.629 127.419C151.629 131.772 160.074 136.824 163.789 137.888C164.793 138.174 166.361 137.724 168.331 136.587C172.283 134.307 176.533 129.996 176.843 128.683C177.348 126.659 177.652 107.853 176.576 104.096C175.536 100.448 169.365 98.1251 165.571 98.1251C161.649 98.1251 150.03 100.198 148.139 109.385V109.391Z" fill="white"/>
</g>
</mask>
<g mask="url(#mask5_30_2523)">
<path d="M165.583 97.8211C161.552 97.8211 149.714 99.9734 147.829 109.373C147.829 109.373 149.921 118.858 150.869 124.16C150.869 121.728 151.295 117.07 153.909 115.04C157.521 112.231 163.546 111.823 166.957 110.218C170.368 108.613 171.17 104.4 171.17 104.4C171.17 104.4 171.371 111.823 172.994 113.635C174.618 115.447 176.211 116.675 176.411 119.855C176.612 123.035 177.214 126.276 175.609 128.89C174.004 131.504 167.377 136.514 164.367 137.517C163.905 137.676 163.455 137.809 163.029 137.937C163.266 138.022 163.498 138.101 163.71 138.162C167.48 139.238 176.624 130.896 177.165 128.744C177.706 126.592 177.968 107.762 176.892 103.998C175.816 100.235 169.632 97.8211 165.583 97.8211Z" fill="#FFCC04"/>
<path d="M159.995 136.581C158.53 135.104 154.523 131.012 152.699 128.902C152.172 128.301 151.7 127.654 151.289 126.969C151.289 127.145 151.289 127.303 151.289 127.412C151.325 130.787 156.019 134.459 159.995 136.581Z" fill="#FFCC04"/>
<g opacity="0.5">
<path d="M165.583 97.8211C161.552 97.8211 149.714 99.9734 147.829 109.373C147.829 109.373 149.921 118.858 150.869 124.16C150.869 121.728 151.295 117.07 153.909 115.04C157.521 112.231 163.546 111.823 166.957 110.218C170.368 108.613 171.17 104.4 171.17 104.4C171.17 104.4 171.371 111.823 172.994 113.635C174.618 115.447 176.211 116.675 176.411 119.855C176.612 123.035 177.214 126.276 175.609 128.89C174.004 131.504 167.377 136.514 164.367 137.517C163.905 137.676 163.455 137.809 163.029 137.937C163.266 138.022 163.498 138.101 163.71 138.162C167.48 139.238 176.624 130.896 177.165 128.744C177.706 126.592 177.968 107.762 176.892 103.998C175.816 100.235 169.632 97.8211 165.583 97.8211Z" fill="white"/>
<path d="M159.995 136.581C158.53 135.104 154.523 131.012 152.699 128.902C152.172 128.301 151.7 127.654 151.289 126.969C151.289 127.145 151.289 127.303 151.289 127.412C151.325 130.787 156.019 134.459 159.995 136.581Z" fill="white"/>
</g>
</g>
<path d="M161.759 119.125C161.759 119.879 161.424 120.487 161.005 120.487C160.585 120.487 160.245 119.879 160.245 119.125C160.245 118.372 160.585 117.764 161.005 117.764C161.424 117.764 161.759 118.372 161.759 119.125Z" fill="#263238"/>
<path d="M170.617 119.125C170.617 119.879 170.277 120.487 169.857 120.487C169.438 120.487 169.097 119.879 169.097 119.125C169.097 118.372 169.438 117.764 169.857 117.764C170.277 117.764 170.617 118.372 170.617 119.125Z" fill="#263238"/>
<path d="M166.501 124.883C166.44 124.884 166.38 124.866 166.33 124.831C166.28 124.796 166.242 124.746 166.221 124.689C166.191 124.614 166.191 124.531 166.222 124.457C166.253 124.383 166.311 124.324 166.385 124.293C167.601 123.819 169.316 122.883 169.425 122.299C169.474 122.074 169.383 121.995 168.611 121.825C168.05 121.748 167.521 121.517 167.085 121.156C166.179 120.25 166.92 117.709 167.012 117.423C167.035 117.342 167.089 117.274 167.163 117.234C167.199 117.214 167.239 117.201 167.281 117.197C167.322 117.192 167.364 117.196 167.404 117.207C167.444 117.219 167.481 117.238 167.513 117.264C167.546 117.29 167.573 117.322 167.593 117.359C167.613 117.395 167.626 117.435 167.63 117.476C167.635 117.518 167.631 117.559 167.62 117.599C167.328 118.548 167.048 120.238 167.541 120.731C167.896 120.999 168.315 121.17 168.757 121.229C169.365 121.369 170.21 121.557 170.033 122.445C169.814 123.564 167.151 124.676 166.622 124.877C166.583 124.888 166.541 124.89 166.501 124.883Z" fill="#263238"/>
<path d="M163.807 128.932C163.183 128.969 162.56 128.844 161.998 128.571C161.436 128.297 160.954 127.884 160.597 127.37C160.575 127.337 160.559 127.3 160.551 127.261C160.543 127.222 160.543 127.181 160.551 127.142C160.559 127.103 160.575 127.066 160.597 127.033C160.62 127 160.649 126.972 160.682 126.95C160.749 126.906 160.831 126.891 160.91 126.907C160.988 126.923 161.057 126.969 161.102 127.036C162.561 129.23 165.966 127.941 165.966 127.929C166.041 127.899 166.125 127.901 166.199 127.933C166.273 127.964 166.331 128.025 166.361 128.1C166.391 128.175 166.39 128.258 166.358 128.332C166.326 128.406 166.266 128.465 166.191 128.495C165.426 128.771 164.621 128.919 163.807 128.932Z" fill="#263238"/>
<path d="M158.226 117.01C158.19 117.015 158.153 117.015 158.117 117.01C158.079 116.995 158.044 116.974 158.015 116.946C157.986 116.919 157.962 116.886 157.946 116.849C157.929 116.812 157.92 116.772 157.92 116.732C157.919 116.692 157.926 116.652 157.94 116.614C158.255 115.87 158.836 115.27 159.57 114.93C160.019 114.756 160.499 114.675 160.981 114.691C161.463 114.708 161.936 114.823 162.373 115.028C162.448 115.057 162.508 115.116 162.54 115.19C162.571 115.264 162.573 115.348 162.543 115.423C162.513 115.498 162.455 115.558 162.38 115.59C162.306 115.622 162.223 115.623 162.148 115.593C161.786 115.418 161.393 115.319 160.991 115.3C160.59 115.281 160.189 115.343 159.813 115.484C159.23 115.762 158.766 116.241 158.506 116.833C158.482 116.888 158.443 116.933 158.393 116.965C158.343 116.996 158.285 117.012 158.226 117.01Z" fill="#263238"/>
<path d="M171.219 116.012C171.172 116.012 171.127 116.001 171.085 115.981C171.043 115.961 171.006 115.933 170.976 115.897C170.368 115.137 169.814 114.766 169.267 114.79C169.003 114.835 168.751 114.935 168.528 115.084C168.305 115.233 168.115 115.427 167.972 115.654C167.929 115.721 167.86 115.769 167.782 115.787C167.704 115.805 167.622 115.792 167.553 115.751C167.518 115.731 167.488 115.703 167.464 115.671C167.44 115.638 167.424 115.601 167.414 115.562C167.405 115.523 167.404 115.482 167.411 115.443C167.418 115.403 167.433 115.365 167.455 115.332C167.649 115.021 167.908 114.757 168.215 114.559C168.522 114.36 168.869 114.232 169.231 114.182C170.009 114.14 170.745 114.596 171.456 115.526C171.505 115.59 171.527 115.67 171.517 115.75C171.506 115.83 171.465 115.902 171.401 115.952C171.349 115.992 171.285 116.013 171.219 116.012Z" fill="#263238"/>
<path d="M178.229 99.9734C175.566 96.9334 172.757 97.1158 171.079 97.7725C168.805 93.9421 161.29 90.9021 151.623 94.5926C140.327 98.8973 141.67 110.468 142.211 112.62C142.752 114.772 146.516 120.42 148.936 120.688C148.936 120.688 151.088 118.803 151.088 116.924C151.088 115.046 156.201 111.276 161.309 109.659C164.525 108.644 168.057 106.777 170.1 104.394C170.062 105.959 170.465 107.503 171.262 108.85C172.879 111.282 175.299 112.62 175.299 113.428C175.299 114.237 176.642 117.192 177.731 117.192C178.819 117.192 178.807 112.887 179.074 111.003C179.342 109.118 181.993 104.278 178.229 99.9734Z" fill="#263238"/>
<path d="M148.905 120.992H148.869C146.224 120.694 142.43 114.857 141.883 112.693C141.853 112.559 138.88 99.1162 151.489 94.313C160.798 90.7622 168.513 93.2368 171.207 97.4016C172.581 96.9395 175.585 96.4896 178.454 99.7728C181.598 103.366 180.406 107.312 179.67 109.677C179.522 110.125 179.402 110.582 179.312 111.045C179.245 111.501 179.196 112.115 179.141 112.76C178.91 115.623 178.679 117.496 177.664 117.496C176.326 117.496 174.94 114.286 174.94 113.428C174.94 113.173 174.332 112.602 173.724 112.054C172.683 111.158 171.756 110.137 170.964 109.014C170.233 107.847 169.814 106.511 169.748 105.135C167.814 107.099 164.732 108.868 161.321 109.945C156.165 111.574 151.313 115.252 151.313 116.918C151.313 118.913 149.149 120.828 149.057 120.913C149.015 120.953 148.963 120.981 148.905 120.992ZM160.056 93.2368C157.195 93.2715 154.364 93.8278 151.702 94.8784C139.585 99.4992 142.442 112.413 142.473 112.547C143.008 114.687 146.583 119.928 148.808 120.366C149.222 119.977 150.754 118.42 150.754 116.924C150.754 114.815 156.019 111.003 161.187 109.367C164.805 108.23 168.039 106.291 169.839 104.193C169.88 104.146 169.935 104.113 169.996 104.098C170.057 104.082 170.121 104.086 170.179 104.108C170.237 104.13 170.287 104.169 170.321 104.22C170.356 104.271 170.374 104.332 170.374 104.394C170.336 105.9 170.721 107.388 171.487 108.686C172.253 109.765 173.149 110.746 174.156 111.604C175.007 112.389 175.572 112.906 175.572 113.428C175.572 114.213 176.886 116.888 177.688 116.888C178.223 116.888 178.46 113.964 178.564 112.711C178.612 112.054 178.667 111.434 178.734 110.96C178.827 110.466 178.953 109.978 179.111 109.501C179.828 107.117 180.935 103.512 177.998 100.174C175.299 97.0915 172.575 97.5232 171.189 98.0582C171.121 98.0836 171.047 98.0841 170.979 98.0596C170.911 98.0351 170.854 97.9872 170.818 97.9245C169.389 95.529 165.504 93.2368 160.056 93.2368Z" fill="#263238"/>
<path d="M146.644 113.97H146.589C146.51 113.955 146.44 113.909 146.395 113.843C146.349 113.777 146.331 113.696 146.346 113.617C146.522 112.675 147.185 111.872 148.376 111.148C148.446 111.109 148.528 111.098 148.605 111.119C148.682 111.139 148.748 111.189 148.788 111.258C148.829 111.326 148.841 111.408 148.822 111.485C148.803 111.563 148.754 111.63 148.686 111.671C147.659 112.279 147.087 112.966 146.941 113.732C146.927 113.801 146.89 113.862 146.835 113.905C146.781 113.948 146.713 113.971 146.644 113.97Z" fill="white"/>
<path d="M150.492 110.778C150.431 110.777 150.371 110.758 150.32 110.724C150.269 110.689 150.229 110.64 150.207 110.583C150.179 110.508 150.182 110.425 150.215 110.352C150.248 110.279 150.308 110.223 150.383 110.194C152.493 109.446 154.65 108.836 156.84 108.37C158.469 107.993 160.014 107.628 161.296 107.221C166.112 105.689 168.811 101.493 168.842 101.457C168.862 101.422 168.89 101.392 168.922 101.368C168.955 101.345 168.992 101.328 169.031 101.319C169.07 101.31 169.111 101.309 169.15 101.316C169.19 101.323 169.228 101.338 169.261 101.36C169.329 101.403 169.377 101.472 169.394 101.551C169.411 101.629 169.396 101.711 169.352 101.779C167.434 104.585 164.662 106.698 161.448 107.804C160.147 108.218 158.591 108.583 156.949 108.966C154.788 109.416 152.657 110.004 150.571 110.729C150.547 110.749 150.521 110.765 150.492 110.778Z" fill="white"/>
<path d="M145.738 105.354C145.676 105.355 145.617 105.336 145.567 105.3C145.501 105.255 145.454 105.186 145.438 105.107C145.423 105.029 145.438 104.947 145.482 104.88C146.09 103.938 147.732 104.004 150.182 104.102C152.169 104.213 154.161 104.201 156.147 104.065C161.673 103.621 166.61 100.296 166.659 100.259C166.726 100.215 166.808 100.199 166.886 100.215C166.965 100.231 167.034 100.278 167.078 100.344C167.101 100.377 167.117 100.414 167.126 100.453C167.134 100.491 167.135 100.532 167.127 100.571C167.12 100.61 167.105 100.647 167.083 100.68C167.061 100.713 167.033 100.742 166.999 100.764C166.793 100.904 161.88 104.217 156.195 104.673C154.185 104.812 152.169 104.824 150.158 104.71C147.993 104.625 146.431 104.558 145.987 105.22C145.96 105.262 145.923 105.295 145.879 105.319C145.836 105.342 145.787 105.354 145.738 105.354Z" fill="white"/>
<path d="M178.399 108.528C178.359 108.526 178.32 108.517 178.284 108.5C178.248 108.484 178.215 108.46 178.188 108.43C178.161 108.401 178.14 108.367 178.126 108.329C178.112 108.292 178.106 108.252 178.108 108.212C178.135 107.46 178.08 106.708 177.943 105.968C177.935 105.929 177.934 105.889 177.941 105.849C177.948 105.81 177.963 105.772 177.985 105.738C178.008 105.705 178.036 105.676 178.07 105.654C178.103 105.632 178.141 105.617 178.18 105.61C178.22 105.602 178.261 105.602 178.3 105.61C178.34 105.618 178.377 105.633 178.411 105.656C178.444 105.679 178.473 105.708 178.495 105.742C178.517 105.775 178.532 105.813 178.539 105.853C178.683 106.639 178.742 107.438 178.716 108.236C178.714 108.276 178.705 108.315 178.688 108.352C178.671 108.388 178.647 108.421 178.618 108.448C178.589 108.475 178.554 108.496 178.517 108.51C178.479 108.523 178.439 108.53 178.399 108.528Z" fill="white"/>
<path d="M177.901 104.996C177.838 104.996 177.776 104.976 177.724 104.939C177.673 104.902 177.635 104.849 177.615 104.789C177.223 103.707 176.593 102.727 175.772 101.92C174.952 101.113 173.961 100.5 172.873 100.125C172.795 100.103 172.729 100.051 172.69 99.9802C172.65 99.9098 172.639 99.8266 172.66 99.7485C172.671 99.7102 172.69 99.6744 172.715 99.6433C172.74 99.6121 172.771 99.5862 172.806 99.567C172.841 99.5479 172.879 99.5357 172.919 99.5314C172.958 99.5271 172.999 99.5306 173.037 99.5418C174.223 99.9342 175.304 100.593 176.197 101.468C177.09 102.342 177.77 103.41 178.187 104.588C178.2 104.626 178.206 104.666 178.204 104.706C178.201 104.747 178.191 104.786 178.174 104.822C178.156 104.858 178.132 104.891 178.102 104.917C178.071 104.944 178.036 104.964 177.998 104.977C177.967 104.989 177.934 104.995 177.901 104.996Z" fill="white"/>
<path d="M158.348 132.593C157.556 132.624 156.77 132.461 156.056 132.118C153.739 130.902 149.623 125.43 149.453 125.175C149.404 125.111 149.384 125.029 149.395 124.95C149.406 124.87 149.449 124.798 149.513 124.749C149.578 124.701 149.659 124.68 149.739 124.692C149.819 124.703 149.891 124.746 149.939 124.81C149.982 124.865 154.14 130.422 156.341 131.583C158.542 132.745 162.671 131.127 162.713 131.109C162.751 131.095 162.791 131.088 162.831 131.089C162.871 131.09 162.911 131.099 162.947 131.115C162.984 131.132 163.017 131.155 163.045 131.184C163.072 131.214 163.094 131.248 163.108 131.285C163.123 131.323 163.13 131.363 163.128 131.403C163.127 131.443 163.118 131.483 163.102 131.52C163.086 131.556 163.062 131.589 163.033 131.617C163.004 131.645 162.97 131.666 162.932 131.681C161.461 132.224 159.914 132.532 158.348 132.593Z" fill="#263238"/>
<path d="M164.33 131.444C164.33 131.997 163.649 132.453 162.816 132.453C161.983 132.453 161.302 131.997 161.302 131.444C161.302 130.89 161.977 130.434 162.816 130.434C163.655 130.434 164.33 130.884 164.33 131.444Z" fill="#263238"/>
<path d="M147.325 117.295C147.325 117.295 142.333 104.369 147.325 96.6598C147.325 96.6598 139.609 104.594 146.419 119.113L147.325 117.295Z" fill="white"/>
<path d="M150.784 121.484C151.24 124.524 150.413 127.151 148.93 127.376C147.446 127.601 145.89 125.321 145.428 122.287C144.966 119.253 145.805 116.62 147.282 116.396C148.759 116.171 150.352 118.451 150.784 121.484Z" fill="white"/>
<path d="M148.747 127.68C147.16 127.68 145.61 125.412 145.148 122.324C144.911 120.945 144.983 119.53 145.361 118.183C145.744 116.967 146.419 116.207 147.258 116.085C148.924 115.836 150.62 118.177 151.106 121.424C151.34 122.803 151.268 124.216 150.893 125.564C150.504 126.78 149.836 127.54 148.997 127.662C148.914 127.674 148.831 127.68 148.747 127.68ZM147.531 116.675C147.477 116.669 147.422 116.669 147.367 116.675C146.759 116.76 146.273 117.374 145.963 118.353C145.615 119.612 145.55 120.933 145.774 122.22C146.194 125.029 147.635 127.248 148.93 127.048C149.538 126.963 150.03 126.348 150.34 125.37C150.685 124.11 150.749 122.79 150.529 121.503C150.097 118.828 148.753 116.687 147.507 116.687L147.531 116.675Z" fill="#263238"/>
<path d="M148.102 127.285C149.417 127.088 150.114 124.47 149.658 121.438C149.202 118.406 147.767 116.109 146.452 116.307C145.137 116.504 144.44 119.122 144.896 122.154C145.352 125.186 146.787 127.483 148.102 127.285Z" fill="white"/>
<path d="M147.933 127.607C147.239 127.607 146.528 127.078 145.914 126.099C145.217 124.904 144.766 123.581 144.589 122.208C144.096 118.955 144.899 116.237 146.413 116.012C147.927 115.788 149.453 118.153 149.969 121.399C150.2 122.764 150.159 124.161 149.848 125.509C149.519 126.725 148.918 127.479 148.151 127.595L147.933 127.607ZM146.595 116.602H146.492C145.507 116.748 144.728 119.034 145.191 122.074C145.353 123.358 145.766 124.598 146.407 125.722C146.942 126.567 147.525 127.011 148.03 126.938C148.535 126.865 148.972 126.263 149.246 125.297C149.537 124.03 149.574 122.717 149.355 121.436C148.911 118.56 147.574 116.602 146.595 116.602Z" fill="#263238"/>
<path d="M196.792 143.014L203.802 198.433L189.8 198.159L196.792 143.014Z" fill="#FFCC04"/>
<path d="M203.802 198.737L189.818 198.463C189.775 198.463 189.733 198.453 189.694 198.436C189.655 198.418 189.621 198.392 189.593 198.36C189.566 198.327 189.546 198.289 189.534 198.249C189.523 198.208 189.52 198.165 189.526 198.123L196.512 142.977C196.521 142.903 196.557 142.835 196.613 142.786C196.669 142.736 196.741 142.709 196.816 142.71C196.889 142.711 196.96 142.738 197.015 142.788C197.07 142.837 197.105 142.904 197.114 142.977L204.124 198.39C204.131 198.434 204.128 198.478 204.115 198.52C204.103 198.562 204.081 198.601 204.051 198.634C204.02 198.669 203.982 198.697 203.938 198.714C203.895 198.732 203.848 198.74 203.802 198.737ZM190.146 197.861L203.455 198.123L196.767 145.434L190.146 197.861Z" fill="#263238"/>
<mask id="mask7_30_2523" style="mask-type:luminance" maskUnits="userSpaceOnUse" x="189" y="143" width="15" height="56">
<mask id="mask8_30_2523" style="mask-type:luminance" maskUnits="userSpaceOnUse" x="189" y="143" width="15" height="56">
<path d="M196.792 143.014L203.802 198.433L189.8 198.159L196.792 143.014Z" fill="white"/>
</mask>
<g mask="url(#mask8_30_2523)">
<path d="M203.802 198.737L189.818 198.463C189.775 198.463 189.733 198.453 189.694 198.436C189.656 198.418 189.621 198.392 189.593 198.36C189.566 198.327 189.546 198.289 189.534 198.249C189.523 198.208 189.52 198.165 189.526 198.123L196.512 142.977C196.521 142.903 196.557 142.835 196.613 142.786C196.669 142.736 196.741 142.709 196.816 142.71C196.89 142.711 196.96 142.738 197.015 142.788C197.07 142.837 197.105 142.904 197.114 142.977L204.124 198.39C204.131 198.434 204.128 198.478 204.115 198.52C204.103 198.562 204.081 198.601 204.051 198.634C204.02 198.669 203.982 198.697 203.939 198.714C203.895 198.732 203.849 198.74 203.802 198.737ZM190.146 197.861L203.455 198.123L196.767 145.434L190.146 197.861Z" fill="white"/>
</g>
</mask>
<g mask="url(#mask7_30_2523)">
<path opacity="0.3" d="M200.61 173.237L193.32 177.615L193.441 169.425L189.8 198.159L203.802 198.433L202.653 189.38L196.542 189.58L201.966 183.944L201.923 183.573L194.469 186.127L201.212 177.962L200.61 173.237Z" fill="black"/>
</g>
<path d="M146.698 126.671C146.698 126.671 148.766 125.947 149.216 126.744C149.665 127.54 150.188 131 150.176 131.492C150.164 131.985 149.994 132.435 149.057 132.1C148.121 131.766 146.625 128.72 146.625 128.72L146.698 126.671Z" fill="white"/>
<path d="M149.611 132.544C149.386 132.538 149.164 132.493 148.954 132.41C147.957 132.039 146.619 129.407 146.364 128.878C146.355 128.832 146.355 128.784 146.364 128.738L146.425 126.695C146.426 126.634 146.446 126.574 146.482 126.524C146.518 126.474 146.568 126.436 146.626 126.415C147.015 126.282 148.96 125.655 149.507 126.628C149.988 127.473 150.529 131.024 150.511 131.535C150.519 131.699 150.49 131.863 150.424 132.014C150.359 132.165 150.259 132.298 150.134 132.404C149.978 132.504 149.795 132.553 149.611 132.544ZM146.942 128.677C147.507 129.814 148.577 131.62 149.161 131.839C149.58 131.991 149.726 131.924 149.769 131.9C149.811 131.875 149.878 131.723 149.884 131.516C149.884 131.097 149.38 127.674 148.96 126.926C148.76 126.561 147.744 126.701 147.009 126.926L146.942 128.677Z" fill="#263238"/>
<path d="M137.651 137.639C137.651 137.639 139.567 125.327 139.609 123.989C139.652 122.652 141.433 121.557 142.284 121.229C143.136 120.901 148 121.059 148.516 121.077C149.033 121.095 151.113 120.986 151.094 121.685C151.076 122.384 150.894 122.682 149.155 122.962C147.416 123.242 143.257 123.46 143.257 123.46L142.169 125.102L147.331 126.087C147.331 126.087 148.547 126.622 148.328 127.455C148.109 128.288 147.507 131.942 147.495 132.441C147.483 132.939 146.948 133.261 145.713 134.064C144.977 134.541 144.148 134.857 143.281 134.994C143.281 134.994 143.379 137.505 142.673 137.815L140.916 138.6L140.673 152.967L132.739 152.067L137.651 137.639Z" fill="white"/>
<path d="M140.667 153.216H140.63L132.726 152.316C132.681 152.311 132.637 152.296 132.598 152.271C132.559 152.247 132.526 152.215 132.501 152.176C132.482 152.135 132.472 152.091 132.472 152.046C132.472 152 132.482 151.956 132.501 151.915L137.414 137.542C137.511 136.934 139.323 125.23 139.36 123.959C139.402 122.427 141.354 121.229 142.236 120.919C143.117 120.609 146.954 120.7 148.577 120.749H148.851C149.86 120.749 150.875 120.779 151.283 121.193C151.34 121.251 151.386 121.32 151.416 121.397C151.446 121.473 151.461 121.554 151.459 121.636C151.459 122.597 150.96 122.932 149.264 123.211C147.695 123.467 144.266 123.661 143.488 123.704L142.74 124.835L147.452 125.734H147.519C147.574 125.734 148.942 126.385 148.686 127.449C148.474 128.343 147.872 131.936 147.86 132.38C147.86 132.988 147.294 133.371 146.102 134.143L145.944 134.246C145.24 134.696 144.459 135.011 143.64 135.177C143.64 136.004 143.579 137.694 142.85 138.022L141.275 138.727L141.032 152.9C141.031 152.942 141.021 152.984 141.003 153.023C140.985 153.062 140.96 153.096 140.928 153.125C140.895 153.16 140.854 153.186 140.809 153.202C140.763 153.218 140.715 153.223 140.667 153.216ZM133.152 151.781L140.369 152.608L140.606 138.575C140.608 138.518 140.626 138.463 140.659 138.415C140.691 138.368 140.736 138.331 140.789 138.308L142.54 137.524C142.844 137.384 143.008 136.076 142.965 134.988C142.962 134.911 142.987 134.836 143.037 134.777C143.086 134.719 143.156 134.681 143.233 134.672C144.058 134.544 144.848 134.244 145.549 133.79L145.713 133.687C146.753 133.006 147.179 132.72 147.191 132.416C147.191 131.857 147.853 128.16 148.036 127.364C148.157 126.853 147.428 126.44 147.239 126.361L142.114 125.382C142.064 125.372 142.018 125.35 141.979 125.318C141.94 125.287 141.909 125.246 141.889 125.199C141.867 125.155 141.855 125.106 141.855 125.056C141.855 125.007 141.867 124.958 141.889 124.914L142.971 123.272C142.999 123.233 143.036 123.201 143.078 123.178C143.12 123.154 143.166 123.141 143.214 123.138C143.251 123.138 147.373 122.925 149.076 122.646C150.778 122.366 150.748 122.105 150.76 121.655C150.705 121.564 150.377 121.393 148.802 121.393H148.474C146.042 121.32 142.959 121.314 142.357 121.527C141.536 121.819 139.925 122.877 139.883 124.014C139.84 125.351 138.004 137.195 137.925 137.7C137.925 137.7 137.925 137.736 137.925 137.748L133.152 151.781Z" fill="#263238"/>
<path d="M147.914 128.428H147.86L141.597 127.303C141.517 127.289 141.445 127.243 141.398 127.175C141.352 127.108 141.333 127.025 141.348 126.944C141.362 126.864 141.408 126.792 141.476 126.745C141.543 126.699 141.626 126.681 141.707 126.695L147.969 127.826C148.05 127.833 148.124 127.872 148.176 127.934C148.228 127.996 148.253 128.077 148.246 128.157C148.238 128.238 148.199 128.312 148.137 128.364C148.075 128.416 147.995 128.441 147.914 128.434V128.428Z" fill="#263238"/>
<path d="M147.203 131.237H147.136L141.98 129.984C141.9 129.966 141.83 129.916 141.786 129.846C141.742 129.776 141.728 129.691 141.746 129.61C141.765 129.53 141.815 129.46 141.885 129.416C141.955 129.372 142.04 129.358 142.12 129.376L147.282 130.629C147.321 130.637 147.358 130.654 147.39 130.677C147.423 130.7 147.45 130.73 147.47 130.764C147.491 130.798 147.504 130.836 147.509 130.876C147.515 130.915 147.512 130.955 147.501 130.994C147.488 131.063 147.451 131.125 147.396 131.17C147.342 131.214 147.273 131.238 147.203 131.237Z" fill="#263238"/>
<path d="M143.269 135.268C143.218 135.269 143.168 135.257 143.123 135.232C143.078 135.207 143.041 135.172 143.014 135.128C142.795 134.788 142.303 133.955 142.467 133.499C142.493 133.426 142.535 133.361 142.591 133.308C142.647 133.255 142.715 133.216 142.789 133.195C143.269 133.049 144.388 132.763 144.388 132.763L144.54 133.371C144.54 133.371 143.543 133.626 143.038 133.772C143.139 134.146 143.304 134.5 143.525 134.818C143.568 134.886 143.583 134.968 143.566 135.047C143.549 135.125 143.501 135.194 143.433 135.237C143.382 135.261 143.326 135.271 143.269 135.268Z" fill="#263238"/>
<path d="M133.45 144.625L142.023 147.86C142.023 147.86 136.052 185.337 134.617 188.279C133.182 191.222 129.826 194.639 125.497 195.052C121.168 195.466 118.037 190.796 117.909 185.89C117.782 180.983 133.45 144.625 133.45 144.625Z" fill="#FFCC04"/>
<path d="M124.944 195.381C123.449 195.366 122.012 194.796 120.913 193.782C118.943 192.031 117.666 189.015 117.587 185.878C117.454 180.983 132.532 145.969 133.17 144.479C133.202 144.408 133.261 144.351 133.333 144.322C133.406 144.293 133.487 144.292 133.559 144.321L142.132 147.549C142.198 147.573 142.253 147.618 142.289 147.678C142.325 147.738 142.338 147.809 142.327 147.878C142.084 149.41 136.332 185.44 134.885 188.383C133.341 191.544 129.839 194.919 125.503 195.332C125.321 195.375 125.133 195.381 124.944 195.381ZM133.614 145.014C132.191 148.334 118.074 181.342 118.195 185.884C118.268 188.833 119.466 191.684 121.32 193.326C121.869 193.841 122.521 194.234 123.232 194.479C123.944 194.724 124.699 194.816 125.449 194.748C129.547 194.359 132.866 191.149 134.344 188.146C135.687 185.404 141.166 151.301 141.688 148.054L133.614 145.014Z" fill="#263238"/>
<mask id="mask9_30_2523" style="mask-type:luminance" maskUnits="userSpaceOnUse" x="117" y="144" width="26" height="52">
<mask id="mask10_30_2523" style="mask-type:luminance" maskUnits="userSpaceOnUse" x="117" y="144" width="26" height="52">
<path d="M133.45 144.625L142.023 147.86C142.023 147.86 136.052 185.337 134.617 188.279C133.182 191.222 129.826 194.639 125.497 195.052C121.168 195.466 118.037 190.796 117.909 185.89C117.782 180.983 133.45 144.625 133.45 144.625Z" fill="white"/>
</mask>
<g mask="url(#mask10_30_2523)">
<path d="M124.944 195.381C123.449 195.366 122.012 194.796 120.913 193.782C118.943 192.031 117.666 189.015 117.587 185.878C117.454 180.983 132.532 145.969 133.17 144.479C133.202 144.408 133.261 144.351 133.333 144.322C133.406 144.293 133.487 144.292 133.559 144.321L142.132 147.549C142.198 147.573 142.253 147.618 142.289 147.678C142.325 147.738 142.338 147.809 142.327 147.878C142.084 149.41 136.332 185.44 134.885 188.383C133.341 191.544 129.839 194.919 125.503 195.332C125.321 195.375 125.133 195.381 124.944 195.381ZM133.614 145.014C132.191 148.334 118.074 181.342 118.195 185.884C118.268 188.833 119.466 191.684 121.32 193.326C121.869 193.841 122.521 194.234 123.232 194.479C123.944 194.724 124.699 194.816 125.449 194.748C129.547 194.359 132.866 191.149 134.344 188.146C135.687 185.404 141.166 151.301 141.688 148.054L133.614 145.014Z" fill="white"/>
</g>
</mask>
<g mask="url(#mask9_30_2523)">
<path opacity="0.3" d="M126.355 176.004C124.263 177.07 122.08 177.945 119.831 178.618C119.059 180.862 118.469 182.765 118.153 184.127L122.208 183.616C125.097 183.283 127.948 182.672 130.72 181.792C130.72 181.792 124.032 185.932 118.068 186.626H117.928C118.323 191.234 121.339 195.466 125.473 195.071C129.82 194.657 133.17 191.234 134.593 188.298C135.298 186.851 137.098 177.086 138.746 167.522C134.926 170.779 130.773 173.622 126.355 176.004Z" fill="black"/>
</g>
</g>
<path d="M218.108 80.256V78.5901C218.108 78.3546 218.014 78.1289 217.848 77.9624C217.681 77.7959 217.456 77.7024 217.22 77.7024H215.937C215.742 76.863 215.41 76.0617 214.952 75.3312L215.858 74.4192C216.024 74.2518 216.117 74.0256 216.117 73.7899C216.117 73.5542 216.024 73.328 215.858 73.1606L214.685 71.9872C214.518 71.8212 214.291 71.7281 214.056 71.7281C213.82 71.7281 213.594 71.8212 213.426 71.9872L212.514 72.8931C211.784 72.436 210.983 72.1031 210.143 71.9082V70.6253C210.143 70.3899 210.05 70.1641 209.883 69.9976C209.717 69.8311 209.491 69.7376 209.255 69.7376H207.59C207.354 69.7376 207.128 69.8311 206.962 69.9976C206.795 70.1641 206.702 70.3899 206.702 70.6253V71.9082C205.862 72.1031 205.061 72.436 204.331 72.8931L203.419 71.9872C203.251 71.8212 203.025 71.7281 202.789 71.7281C202.554 71.7281 202.327 71.8212 202.16 71.9872L200.987 73.1606C200.821 73.328 200.728 73.5542 200.728 73.7899C200.728 74.0256 200.821 74.2518 200.987 74.4192L201.893 75.3312C201.435 76.0607 201.104 76.8625 200.914 77.7024H199.625C199.389 77.7024 199.164 77.7959 198.997 77.9624C198.831 78.1289 198.737 78.3546 198.737 78.5901V80.256C198.737 80.4914 198.831 80.7172 198.997 80.8837C199.164 81.0502 199.389 81.1437 199.625 81.1437H200.914C201.104 81.9836 201.435 82.7853 201.893 83.5149L200.987 84.4269C200.821 84.5943 200.728 84.8204 200.728 85.0562C200.728 85.2919 200.821 85.518 200.987 85.6854L202.16 86.8589C202.327 87.0248 202.554 87.118 202.789 87.118C203.025 87.118 203.251 87.0248 203.419 86.8589L204.331 85.953C205.065 86.4168 205.873 86.7519 206.72 86.944V88.233C206.72 88.4684 206.814 88.6942 206.98 88.8606C207.147 89.0271 207.372 89.1206 207.608 89.1206H209.274C209.509 89.1206 209.735 89.0271 209.901 88.8606C210.068 88.6942 210.161 88.4684 210.161 88.233V86.944C211.001 86.7537 211.803 86.4228 212.533 85.9651L213.445 86.871C213.612 87.037 213.838 87.1301 214.074 87.1301C214.31 87.1301 214.536 87.037 214.703 86.871L215.84 85.728C216.006 85.5606 216.099 85.3344 216.099 85.0987C216.099 84.863 216.006 84.6368 215.84 84.4694L214.934 83.5574C215.391 82.8269 215.724 82.0257 215.919 81.1862H217.202C217.324 81.1889 217.445 81.1664 217.558 81.1203C217.67 81.0742 217.772 81.0053 217.857 80.9181C217.942 80.8308 218.008 80.727 218.051 80.6131C218.095 80.4992 218.114 80.3777 218.108 80.256ZM208.812 83.2109C208.029 83.2945 207.239 83.1332 206.552 82.7494C205.865 82.3656 205.313 81.778 204.974 81.0677C204.634 80.3574 204.523 79.5593 204.656 78.7833C204.789 78.0073 205.16 77.2917 205.716 76.735C206.273 76.1783 206.989 75.8079 207.765 75.6749C208.54 75.5419 209.339 75.6528 210.049 75.9924C210.759 76.3319 211.347 76.8833 211.731 77.5707C212.114 78.2581 212.276 79.0476 212.192 79.8304C212.103 80.6982 211.718 81.509 211.103 82.1276C210.488 82.7461 209.679 83.1349 208.812 83.2291V83.2109Z" fill="#263238"/>
<path d="M62.4599 152.888V151.635C62.4599 151.456 62.3888 151.285 62.2622 151.158C62.1356 151.031 61.964 150.96 61.785 150.96H60.8C60.6536 150.327 60.403 149.723 60.0583 149.173L60.7453 148.492C60.8078 148.43 60.8574 148.356 60.8913 148.274C60.9251 148.193 60.9425 148.106 60.9425 148.018C60.9425 147.929 60.9251 147.842 60.8913 147.761C60.8574 147.679 60.8078 147.606 60.7453 147.543L59.8576 146.656C59.7955 146.593 59.7216 146.544 59.6402 146.51C59.5588 146.476 59.4715 146.458 59.3834 146.458C59.2952 146.458 59.208 146.476 59.1266 146.51C59.0452 146.544 58.9713 146.593 58.9092 146.656L58.2221 147.337C57.6723 146.992 57.0678 146.743 56.4346 146.601V145.628C56.4346 145.451 56.3641 145.281 56.2387 145.155C56.1133 145.03 55.9432 144.959 55.7658 144.959H54.5316C54.3536 144.959 54.1829 145.03 54.0565 145.155C53.9301 145.28 53.8583 145.45 53.8567 145.628V146.601C53.2234 146.743 52.619 146.992 52.0692 147.337L51.3821 146.656C51.32 146.593 51.2461 146.544 51.1647 146.51C51.0833 146.476 50.996 146.458 50.9079 146.458C50.8197 146.458 50.7325 146.476 50.6511 146.51C50.5697 146.544 50.4958 146.593 50.4336 146.656L49.552 147.543C49.4888 147.605 49.4385 147.679 49.4042 147.76C49.3699 147.842 49.3522 147.929 49.3522 148.018C49.3522 148.106 49.3699 148.193 49.4042 148.275C49.4385 148.356 49.4888 148.43 49.552 148.492L50.233 149.173C49.8883 149.723 49.6376 150.327 49.4912 150.96H48.5245C48.3466 150.962 48.1765 151.034 48.0512 151.16C47.926 151.287 47.8557 151.457 47.8557 151.635V152.888C47.8557 153.065 47.9262 153.235 48.0516 153.361C48.177 153.486 48.3471 153.556 48.5245 153.556H49.4912C49.6354 154.19 49.8862 154.794 50.233 155.344L49.552 156.031C49.4888 156.093 49.4385 156.167 49.4042 156.248C49.3699 156.329 49.3522 156.417 49.3522 156.505C49.3522 156.594 49.3699 156.681 49.4042 156.763C49.4385 156.844 49.4888 156.918 49.552 156.98L50.464 157.867C50.5262 157.93 50.6001 157.979 50.6815 158.013C50.7629 158.047 50.8501 158.064 50.9383 158.064C51.0264 158.064 51.1137 158.047 51.1951 158.013C51.2765 157.979 51.3504 157.93 51.4125 157.867L52.0996 157.18C52.6491 157.527 53.2535 157.778 53.8871 157.922V158.889C53.8871 159.068 53.9582 159.239 54.0847 159.366C54.2113 159.492 54.383 159.564 54.562 159.564H55.8144C55.9924 159.562 56.1625 159.49 56.2877 159.364C56.413 159.237 56.4832 159.067 56.4832 158.889V157.922C57.1168 157.778 57.7212 157.527 58.2708 157.18L58.9578 157.867C59.0199 157.93 59.0938 157.979 59.1752 158.013C59.2566 158.047 59.3439 158.064 59.432 158.064C59.5202 158.064 59.6075 158.047 59.6888 158.013C59.7702 157.979 59.8441 157.93 59.9063 157.867L60.794 156.98C60.8565 156.917 60.9061 156.843 60.9399 156.762C60.9738 156.681 60.9912 156.593 60.9912 156.505C60.9912 156.417 60.9738 156.33 60.9399 156.248C60.9061 156.167 60.8565 156.093 60.794 156.031L60.1069 155.344C60.4537 154.794 60.7045 154.19 60.8487 153.556H61.8154C61.988 153.549 62.1511 153.475 62.271 153.351C62.3909 153.226 62.4585 153.06 62.4599 152.888ZM55.4496 155.113C54.86 155.174 54.266 155.051 53.7492 154.76C53.2324 154.47 52.8182 154.027 52.5634 153.492C52.3087 152.956 52.226 152.355 52.3267 151.771C52.4273 151.187 52.7064 150.648 53.1255 150.229C53.5447 149.81 54.0833 149.531 54.6675 149.43C55.2517 149.33 55.8526 149.412 56.3879 149.667C56.9232 149.922 57.3664 150.336 57.6567 150.853C57.9471 151.37 58.0702 151.964 58.0093 152.553C57.9416 153.209 57.6501 153.821 57.184 154.288C56.7178 154.754 56.1054 155.045 55.4496 155.113Z" fill="#263238"/>
<path d="M248.867 136.192V134.94C248.867 134.761 248.796 134.589 248.669 134.462C248.542 134.336 248.371 134.265 248.192 134.265H247.225C247.081 133.631 246.83 133.027 246.483 132.477L247.17 131.796C247.233 131.734 247.282 131.66 247.316 131.579C247.35 131.497 247.368 131.41 247.368 131.322C247.368 131.234 247.35 131.146 247.316 131.065C247.282 130.984 247.233 130.91 247.17 130.848L246.283 129.96C246.22 129.897 246.147 129.848 246.065 129.814C245.984 129.78 245.897 129.763 245.808 129.763C245.72 129.763 245.633 129.78 245.552 129.814C245.47 129.848 245.396 129.897 245.334 129.96L244.647 130.641C244.096 130.297 243.492 130.046 242.86 129.899V128.896C242.86 128.808 242.842 128.721 242.809 128.64C242.775 128.559 242.726 128.485 242.664 128.423C242.602 128.361 242.528 128.312 242.447 128.278C242.366 128.244 242.279 128.227 242.191 128.227H240.932C240.755 128.227 240.585 128.298 240.459 128.423C240.334 128.549 240.263 128.719 240.263 128.896V129.863C239.631 130.01 239.027 130.26 238.476 130.604L237.789 129.924C237.727 129.861 237.653 129.811 237.571 129.778C237.49 129.744 237.403 129.726 237.315 129.726C237.226 129.726 237.139 129.744 237.058 129.778C236.976 129.811 236.903 129.861 236.84 129.924L235.959 130.811C235.896 130.873 235.845 130.947 235.811 131.028C235.777 131.11 235.759 131.197 235.759 131.285C235.759 131.374 235.777 131.461 235.811 131.543C235.845 131.624 235.896 131.698 235.959 131.76L236.64 132.441C236.293 132.99 236.042 133.595 235.898 134.228H234.931C234.753 134.23 234.583 134.302 234.458 134.428C234.333 134.554 234.262 134.725 234.262 134.903V136.192C234.262 136.369 234.333 136.539 234.458 136.665C234.584 136.79 234.754 136.861 234.931 136.861H235.904C236.048 137.494 236.299 138.099 236.646 138.648L235.965 139.335C235.902 139.397 235.851 139.471 235.817 139.552C235.783 139.634 235.765 139.721 235.765 139.81C235.765 139.898 235.783 139.985 235.817 140.067C235.851 140.148 235.902 140.222 235.965 140.284L236.846 141.172C236.909 141.234 236.983 141.284 237.064 141.317C237.145 141.351 237.233 141.369 237.321 141.369C237.409 141.369 237.496 141.351 237.578 141.317C237.659 141.284 237.733 141.234 237.795 141.172L238.482 140.484C239.031 140.831 239.636 141.082 240.269 141.226V142.193C240.269 142.371 240.34 142.542 240.465 142.668C240.59 142.794 240.76 142.866 240.938 142.868H242.197C242.375 142.866 242.545 142.794 242.67 142.668C242.795 142.542 242.866 142.371 242.866 142.193V141.226C243.499 141.082 244.104 140.831 244.653 140.484L245.34 141.172C245.402 141.234 245.476 141.284 245.558 141.317C245.639 141.351 245.726 141.369 245.814 141.369C245.903 141.369 245.99 141.351 246.071 141.317C246.153 141.284 246.227 141.234 246.289 141.172L247.176 140.284C247.239 140.222 247.288 140.148 247.322 140.066C247.356 139.985 247.374 139.898 247.374 139.81C247.374 139.721 247.356 139.634 247.322 139.553C247.288 139.471 247.239 139.398 247.176 139.335L246.483 138.624C246.83 138.074 247.081 137.47 247.225 136.836H248.192C248.366 136.837 248.533 136.77 248.659 136.65C248.784 136.53 248.859 136.366 248.867 136.192ZM241.856 138.417C241.267 138.478 240.673 138.355 240.156 138.065C239.639 137.774 239.225 137.331 238.97 136.796C238.715 136.261 238.633 135.66 238.733 135.075C238.834 134.491 239.113 133.953 239.532 133.533C239.951 133.114 240.49 132.835 241.074 132.735C241.658 132.634 242.259 132.717 242.795 132.971C243.33 133.226 243.773 133.64 244.063 134.157C244.354 134.674 244.477 135.268 244.416 135.858C244.346 136.511 244.053 137.121 243.587 137.584C243.121 138.048 242.51 138.338 241.856 138.405V138.417Z" fill="#263238"/>
<path d="M146.4 54.5984V53.9539C146.4 53.9087 146.391 53.8639 146.374 53.8222C146.356 53.7805 146.331 53.7427 146.298 53.711C146.266 53.6793 146.228 53.6543 146.186 53.6376C146.144 53.6208 146.099 53.6126 146.054 53.6134H145.561C145.485 53.2885 145.355 52.9783 145.178 52.6954L145.531 52.3488C145.595 52.284 145.63 52.1966 145.63 52.1056C145.63 52.0146 145.595 51.9272 145.531 51.8624L145.075 51.4064C145.011 51.3429 144.925 51.3073 144.835 51.3073C144.745 51.3073 144.658 51.3429 144.595 51.4064L144.242 51.759C143.959 51.5818 143.649 51.4524 143.324 51.376V50.8835C143.324 50.7927 143.288 50.7054 143.224 50.6406C143.161 50.5758 143.074 50.5386 142.983 50.537H142.339C142.248 50.5386 142.161 50.5758 142.098 50.6406C142.034 50.7054 141.998 50.7927 141.998 50.8835V51.376C141.673 51.4517 141.363 51.5811 141.08 51.759L140.728 51.4064C140.663 51.3425 140.575 51.3067 140.484 51.3067C140.393 51.3067 140.306 51.3425 140.241 51.4064L139.791 51.8624C139.727 51.9272 139.692 52.0146 139.692 52.1056C139.692 52.1966 139.727 52.284 139.791 52.3488L140.138 52.6954C139.963 52.9787 139.835 53.2888 139.761 53.6134H139.262C139.172 53.6134 139.085 53.6493 139.022 53.7132C138.958 53.777 138.922 53.8636 138.922 53.9539V54.5984C138.922 54.6893 138.958 54.7765 139.021 54.8413C139.085 54.9061 139.171 54.9434 139.262 54.945H139.761C139.834 55.268 139.962 55.5763 140.138 55.857L139.791 56.2096C139.727 56.2744 139.692 56.3618 139.692 56.4528C139.692 56.5438 139.727 56.6312 139.791 56.696L140.241 57.152C140.306 57.2159 140.393 57.2517 140.484 57.2517C140.575 57.2517 140.663 57.2159 140.728 57.152L141.08 56.7994C141.362 56.9779 141.673 57.1055 141.998 57.1763V57.6749C141.998 57.7652 142.034 57.8518 142.098 57.9156C142.162 57.9795 142.249 58.0154 142.339 58.0154H142.983C143.074 58.0154 143.16 57.9795 143.224 57.9156C143.288 57.8518 143.324 57.7652 143.324 57.6749V57.152C143.649 57.08 143.96 56.9525 144.242 56.775L144.595 57.1277C144.658 57.1912 144.745 57.2268 144.835 57.2268C144.925 57.2268 145.011 57.1912 145.075 57.1277L145.531 56.6717C145.595 56.6068 145.63 56.5195 145.63 56.4285C145.63 56.3375 145.595 56.2501 145.531 56.1853L145.178 55.8326C145.356 55.5523 145.486 55.244 145.561 54.9206H146.054C146.142 54.9209 146.226 54.8877 146.291 54.8279C146.355 54.7681 146.394 54.686 146.4 54.5984ZM142.813 55.7414C142.51 55.779 142.203 55.7215 141.935 55.577C141.666 55.4325 141.449 55.2081 141.314 54.9348C141.178 54.6615 141.131 54.3529 141.179 54.0516C141.226 53.7503 141.366 53.4713 141.579 53.2531C141.793 53.0349 142.068 52.8884 142.368 52.8337C142.668 52.7791 142.978 52.819 143.254 52.9481C143.531 53.0771 143.76 53.2889 143.911 53.554C144.062 53.8192 144.126 54.1247 144.096 54.4282C144.062 54.7597 143.916 55.0698 143.683 55.3082C143.45 55.5467 143.144 55.6993 142.813 55.7414Z" fill="#263238"/>
<path d="M68.1871 97.1706H64.0527V101.305H68.1871V97.1706ZM64.8918 98.0096H67.3238V100.472H64.8918V98.0096Z" fill="#263238"/>
<path d="M235.193 177.968H231.04V182.102H235.174L235.193 177.968ZM231.891 178.807H234.354V181.269H231.891V178.807Z" fill="#263238"/>
<path d="M173.164 59.5354H169.024V63.6698H173.158L173.164 59.5354ZM169.863 60.3683H172.325V62.8003H169.863V60.3683Z" fill="#263238"/>
<path d="M65.7553 163.193H61.6208V167.334H65.7553V163.193ZM62.4538 164.032H64.8858V166.464H62.4538V164.032Z" fill="#263238"/>
<path opacity="0.9" d="M186.474 88.16C185.982 88.1588 185.5 88.3036 185.091 88.5761C184.681 88.8486 184.361 89.2366 184.172 89.6909C183.983 90.1452 183.933 90.6453 184.028 91.1281C184.123 91.6109 184.36 92.0546 184.707 92.4029C185.055 92.7513 185.498 92.9888 185.98 93.0852C186.463 93.1816 186.963 93.1328 187.418 92.9447C187.873 92.7567 188.261 92.438 188.535 92.0289C188.808 91.6198 188.954 91.1388 188.954 90.6467C188.954 89.9883 188.693 89.3567 188.228 88.8905C187.763 88.4243 187.132 88.1616 186.474 88.16ZM186.474 92.1363C186.179 92.1363 185.891 92.049 185.646 91.8853C185.401 91.7216 185.21 91.489 185.098 91.2168C184.985 90.9446 184.955 90.6451 185.013 90.3561C185.07 90.0672 185.212 89.8017 185.42 89.5934C185.629 89.3851 185.894 89.2432 186.183 89.1857C186.472 89.1283 186.772 89.1578 187.044 89.2705C187.316 89.3833 187.549 89.5742 187.712 89.8191C187.876 90.0641 187.963 90.3521 187.963 90.6467C187.957 91.0376 187.797 91.4102 187.519 91.6843C187.24 91.9585 186.865 92.1121 186.474 92.112V92.1363Z" fill="#263238"/>
<path d="M142.272 99.8214L136.703 92.112C137.724 92.1088 138.703 91.7016 139.425 90.9794C140.147 90.2572 140.554 89.2786 140.557 88.2573V67.2691C140.553 66.2483 140.145 65.2706 139.423 64.5487C138.701 63.8269 137.724 63.4192 136.703 63.4144H88.3059C87.2845 63.4176 86.3059 63.8248 85.5837 64.547C84.8615 65.2692 84.4544 66.2478 84.4512 67.2691V88.2573C84.4528 89.2791 84.8594 90.2586 85.582 90.9812C86.3045 91.7038 87.2841 92.1104 88.3059 92.112H130.155L142.272 99.8214Z" fill="#263238"/>
<path d="M100.533 76.9059C100.533 76.4393 100.394 75.9833 100.135 75.5953C99.876 75.2074 99.5076 74.905 99.0765 74.7265C98.6455 74.5479 98.1711 74.5012 97.7135 74.5922C97.2559 74.6832 96.8356 74.9079 96.5056 75.2378C96.1757 75.5677 95.9511 75.9881 95.86 76.4457C95.769 76.9033 95.8157 77.3776 95.9943 77.8087C96.1728 78.2397 96.4752 78.6082 96.8631 78.8674C97.2511 79.1266 97.7072 79.265 98.1737 79.265C98.4835 79.265 98.7903 79.2039 99.0765 79.0854C99.3627 78.9668 99.6228 78.7931 99.8418 78.574C100.061 78.355 100.235 78.0949 100.353 77.8087C100.472 77.5225 100.533 77.2157 100.533 76.9059Z" fill="#FFCC04"/>
<path d="M114.45 76.9059C114.45 76.4391 114.312 75.9828 114.052 75.5947C113.793 75.2066 113.424 74.9042 112.992 74.7259C112.561 74.5475 112.086 74.5011 111.629 74.5927C111.171 74.6842 110.75 74.9095 110.421 75.24C110.091 75.5705 109.867 75.9914 109.777 76.4494C109.686 76.9074 109.734 77.382 109.913 77.8129C110.093 78.2439 110.396 78.6119 110.785 78.8703C111.174 79.1288 111.63 79.2662 112.097 79.265C112.407 79.265 112.713 79.2039 112.999 79.0853C113.285 78.9666 113.544 78.7928 113.763 78.5736C113.982 78.3545 114.155 78.0944 114.273 77.8082C114.391 77.522 114.451 77.2154 114.45 76.9059Z" fill="#FFCC04"/>
<path d="M128.373 76.9059C128.373 76.4393 128.235 75.9833 127.976 75.5953C127.716 75.2074 127.348 74.905 126.917 74.7265C126.486 74.5479 126.011 74.5012 125.554 74.5922C125.096 74.6832 124.676 74.9079 124.346 75.2378C124.016 75.5677 123.791 75.9881 123.7 76.4457C123.609 76.9033 123.656 77.3776 123.835 77.8087C124.013 78.2397 124.316 78.6082 124.703 78.8674C125.091 79.1266 125.547 79.265 126.014 79.265C126.324 79.265 126.631 79.2039 126.917 79.0854C127.203 78.9668 127.463 78.7931 127.682 78.574C127.901 78.355 128.075 78.0949 128.194 77.8087C128.312 77.5225 128.373 77.2157 128.373 76.9059Z" fill="#FFCC04"/>
</svg>
