<svg width="20" height="20" viewBox="0 0 20 20" fill="none" xmlns="http://www.w3.org/2000/svg">
<path d="M9.41802 18.0124C9.60251 18.12 9.69475 18.1738 9.82494 18.2018C9.92597 18.2234 10.0734 18.2234 10.1744 18.2018C10.3046 18.1738 10.3968 18.12 10.5813 18.0124C12.2047 17.0653 16.6663 14.0904 16.6663 9.99999V6.01466C16.6663 5.3484 16.6663 5.01527 16.5574 4.72891C16.4611 4.47594 16.3047 4.25023 16.1016 4.07127C15.8718 3.86869 15.5598 3.75172 14.936 3.51778L10.4678 1.84222C10.2946 1.77725 10.208 1.74477 10.1189 1.73189C10.0398 1.72047 9.95954 1.72047 9.88049 1.73189C9.79138 1.74477 9.70476 1.77725 9.53151 1.84222L5.06334 3.51778C4.43951 3.75172 4.12759 3.86869 3.89772 4.07127C3.69466 4.25023 3.53824 4.47594 3.44197 4.72891C3.33301 5.01527 3.33301 5.3484 3.33301 6.01466V9.99999C3.33301 14.0904 7.79464 17.0653 9.41802 18.0124Z" stroke="#414141" stroke-linecap="round" stroke-linejoin="round"/>
</svg>
