<svg width="26" height="40" viewBox="0 0 26 40" fill="none" xmlns="http://www.w3.org/2000/svg">
<path d="M16.766 38.9828C16.766 39.5447 16.3107 40 15.7489 40H10.2506C9.68874 40 9.23339 39.5447 9.23339 38.9828C9.23339 38.421 9.68874 37.9657 10.2506 37.9657H15.7489C16.3107 37.9657 16.766 38.421 16.766 38.9828ZM25.7386 29.2669V32.1972C25.7386 34.3739 23.9677 36.1447 21.7908 36.1447H4.20872C2.03211 36.1447 0.26123 34.374 0.26123 32.1972V29.2669C0.26123 28.7051 0.71658 28.2497 1.27839 28.2497H1.54896C1.54658 28.2206 1.54523 28.191 1.54523 28.1611V25.4354C1.54376 25.3749 1.54783 25.3149 1.55709 25.2559C1.58015 25.1057 1.63609 24.9665 1.71735 24.8455C1.79703 24.7263 1.90259 24.623 2.03008 24.545C2.08172 24.5133 2.13631 24.486 2.1935 24.4638C2.5963 24.2962 2.99672 24.1229 3.39205 23.9455V11.5175C3.39205 9.49713 4.67763 7.72229 6.51124 7.03944C6.50909 6.98383 6.50807 6.92823 6.50807 6.87217V4.36001C6.50796 1.95589 8.46385 0 10.8679 0H15.1315C17.5356 0 19.4914 1.95589 19.4914 4.36001V6.87228C19.4914 6.92823 19.4902 6.98395 19.4882 7.03932C20.2109 7.30808 20.859 7.74908 21.3758 8.32219C21.3939 8.28829 21.4118 8.25449 21.4298 8.22059C21.6918 7.72376 22.307 7.53333 22.8041 7.79564C23.301 8.05773 23.4912 8.67311 23.2291 9.16994C21.3253 12.7782 18.5606 16.1214 15.0119 19.1068C12.1793 21.4896 8.96407 23.5477 5.42649 25.2452V28.2499H20.5732V16.0079C20.5732 15.4461 21.0285 14.9907 21.5903 14.9907C22.1521 14.9907 22.6075 15.4461 22.6075 16.0079V28.2497H24.7216C25.2832 28.2497 25.7386 28.7051 25.7386 29.2669ZM8.54228 6.87228C8.54228 7.08046 8.56975 7.28243 8.62128 7.47467C8.62953 7.49953 8.63688 7.52485 8.6431 7.55062C8.934 8.50313 9.8212 9.19797 10.8677 9.19797H15.1313C16.1778 9.19797 17.065 8.50336 17.3561 7.55096C17.3625 7.52485 17.3699 7.4992 17.3781 7.47411C17.4296 7.28209 17.457 7.08035 17.457 6.87228V4.36001C17.457 3.07759 16.4138 2.03432 15.1313 2.03432H10.8677C9.58544 2.03432 8.54228 3.07759 8.54228 4.36001V6.87228ZM5.42638 22.9734C11.7762 19.75 16.9921 15.2712 20.25 10.2319C19.9548 9.68135 19.4872 9.25335 18.9316 9.00787C18.1832 10.3345 16.7602 11.2322 15.1313 11.2322H10.8677C9.23904 11.2322 7.81603 10.3344 7.06763 9.00776C6.09522 9.43723 5.42638 10.4135 5.42638 11.5175V22.9734ZM23.7043 30.2841H21.6056C21.6004 30.2841 21.5953 30.2842 21.5902 30.2842H4.40922C4.40413 30.2842 4.39904 30.2842 4.39385 30.2841H2.29555V32.1972C2.29555 33.2521 3.15381 34.1104 4.20872 34.1104H21.7908C22.846 34.1104 23.7043 33.2521 23.7043 32.1972V30.2841Z" fill="#333333"/>
</svg>
