<svg width="20" height="20" viewBox="0 0 20 20" fill="none" xmlns="http://www.w3.org/2000/svg">
<path d="M7.5 11.875L12.5 6.875M16.25 3.96416V18.125L13.125 16.875L10 18.125L6.875 16.875L3.75 18.125V3.96416C3.75 3.04083 4.42173 2.25011 5.3389 2.14367C6.86797 1.96622 8.42333 1.875 10 1.875C11.5767 1.875 13.132 1.96622 14.6611 2.14367C15.5783 2.25011 16.25 3.04083 16.25 3.96416ZM8.125 7.5H8.13125V7.50625H8.125V7.5ZM8.4375 7.5C8.4375 7.67259 8.29759 7.8125 8.125 7.8125C7.95241 7.8125 7.8125 7.67259 7.8125 7.5C7.8125 7.32741 7.95241 7.1875 8.125 7.1875C8.29759 7.1875 8.4375 7.32741 8.4375 7.5ZM11.875 11.25H11.8813V11.2563H11.875V11.25ZM12.1875 11.25C12.1875 11.4226 12.0476 11.5625 11.875 11.5625C11.7024 11.5625 11.5625 11.4226 11.5625 11.25C11.5625 11.0774 11.7024 10.9375 11.875 10.9375C12.0476 10.9375 12.1875 11.0774 12.1875 11.25Z" stroke="#343434" stroke-linecap="round" stroke-linejoin="round"/>
</svg>
