<svg width="18" height="18" viewBox="0 0 18 18" fill="none" xmlns="http://www.w3.org/2000/svg">
<path fill-rule="evenodd" clip-rule="evenodd" d="M1.70163 3.38913C2.07085 3.01992 2.57161 2.8125 3.09375 2.8125H9.84375C10.3659 2.8125 10.8667 3.01992 11.2359 3.38913C11.6051 3.75835 11.8125 4.25911 11.8125 4.78125V6.1875C11.8125 6.49816 11.5607 6.75 11.25 6.75C10.9393 6.75 10.6875 6.49816 10.6875 6.1875V4.78125C10.6875 4.55747 10.5986 4.34286 10.4404 4.18463C10.2821 4.02639 10.0675 3.9375 9.84375 3.9375H3.09375C2.86997 3.9375 2.65536 4.02639 2.49713 4.18463C2.33889 4.34286 2.25 4.55747 2.25 4.78125V13.2188C2.25 13.4425 2.33889 13.6571 2.49713 13.8154C2.65536 13.9736 2.86997 14.0625 3.09375 14.0625H9.84375C10.0675 14.0625 10.2821 13.9736 10.4404 13.8154C10.5986 13.6571 10.6875 13.4425 10.6875 13.2188V11.8125C10.6875 11.5018 10.9393 11.25 11.25 11.25C11.5607 11.25 11.8125 11.5018 11.8125 11.8125V13.2188C11.8125 13.7409 11.6051 14.2417 11.2359 14.6109C10.8667 14.9801 10.3659 15.1875 9.84375 15.1875H3.09375C2.57161 15.1875 2.07085 14.9801 1.70163 14.6109C1.33242 14.2417 1.125 13.7409 1.125 13.2188V4.78125C1.125 4.25911 1.33242 3.75835 1.70163 3.38913Z" fill="#414141"/>
<path fill-rule="evenodd" clip-rule="evenodd" d="M13.1023 5.78975C13.3219 5.57008 13.6781 5.57008 13.8977 5.78975L16.7102 8.60225C16.9299 8.82192 16.9299 9.17808 16.7102 9.39775L13.8977 12.2102C13.6781 12.4299 13.3219 12.4299 13.1023 12.2102C12.8826 11.9906 12.8826 11.6344 13.1023 11.4148L15.517 9L13.1023 6.58525C12.8826 6.36558 12.8826 6.00942 13.1023 5.78975Z" fill="#414141"/>
<path fill-rule="evenodd" clip-rule="evenodd" d="M6.15234 9C6.15234 8.68934 6.40418 8.4375 6.71484 8.4375H16.3125C16.6232 8.4375 16.875 8.68934 16.875 9C16.875 9.31066 16.6232 9.5625 16.3125 9.5625H6.71484C6.40418 9.5625 6.15234 9.31066 6.15234 9Z" fill="#414141"/>
</svg>
