<svg width="22" height="22" viewBox="0 0 22 22" fill="none" xmlns="http://www.w3.org/2000/svg">
<path fill-rule="evenodd" clip-rule="evenodd" d="M8.34706 4.2953C9.31278 4.16924 10.2883 4.125 11 4.125C11.7122 4.125 12.6883 4.17026 13.654 4.29697C14.6025 4.42141 15.6129 4.63298 16.3487 4.99862C17.1663 5.40488 17.6675 6.11665 18.0112 6.73804C18.1666 7.01891 18.3008 7.30268 18.4161 7.54624C18.4292 7.57408 18.4422 7.6014 18.4548 7.62813C18.5858 7.90418 18.6842 8.10293 18.7772 8.24424C18.9223 8.46484 19.198 8.65598 19.5937 8.87536C19.6456 8.90415 19.7028 8.93518 19.7623 8.9674C19.8973 9.04062 20.0438 9.12002 20.1653 9.19332C20.336 9.29629 20.5681 9.44924 20.732 9.6668L20.733 9.66824C20.8458 9.81867 20.9113 9.99969 20.9519 10.1299C20.9981 10.278 21.0376 10.4478 21.0718 10.6256C21.1403 10.9826 21.1959 11.4172 21.2361 11.8688C21.3159 12.7642 21.3415 13.7982 21.2675 14.5087C21.197 15.1864 21.0955 15.7289 21.0104 16.1061C20.9678 16.2947 20.9293 16.4422 20.9007 16.5448C20.8863 16.5961 20.8745 16.6362 20.8658 16.6647C20.8615 16.6789 20.858 16.6902 20.8553 16.6985C20.854 16.7027 20.8529 16.7061 20.8521 16.7088L20.8509 16.7122L20.8503 16.7141C20.8503 16.7142 20.8502 16.7145 20.197 16.5L20.8503 16.7141C20.7577 16.9963 20.4941 17.1875 20.197 17.1875H16.5447C16.1758 17.1875 15.9061 17.1182 15.6565 17.0541C15.636 17.0488 15.6155 17.0436 15.5952 17.0384C15.3372 16.9728 15.0135 16.895 14.4405 16.8407C13.1081 16.7141 11.7549 16.6719 11 16.6719C10.2458 16.6719 8.93563 16.714 7.60169 16.8407C7.02918 16.8945 6.7069 16.9723 6.44999 17.0379C6.42998 17.043 6.40989 17.0482 6.38967 17.0534C6.13976 17.1179 5.86983 17.1875 5.49741 17.1875H1.8021C1.50507 17.1875 1.24163 16.9967 1.14893 16.7145L1.8021 16.5C1.14893 16.7145 1.14897 16.7147 1.14893 16.7145L1.1486 16.7135L1.14818 16.7122L1.14706 16.7088C1.14645 16.7069 1.14573 16.7046 1.14489 16.702L1.14379 16.6985C1.14115 16.6902 1.13762 16.6789 1.13329 16.6647C1.12464 16.6362 1.11279 16.5961 1.09846 16.5448C1.06982 16.4422 1.03128 16.2947 0.988704 16.1061C0.903579 15.7289 0.802136 15.1864 0.731576 14.5087C0.657619 13.7983 0.683001 12.7643 0.762764 11.8688C0.802991 11.4171 0.858627 10.9824 0.927432 10.6253C0.961708 10.4474 1.00139 10.2775 1.04781 10.1292C1.08863 9.99877 1.15455 9.81742 1.26802 9.6668C1.43169 9.44953 1.66342 9.29648 1.83411 9.19329C1.95583 9.11971 2.10238 9.04006 2.23757 8.96657C2.29682 8.93437 2.35389 8.90335 2.40573 8.87455C2.8017 8.65455 3.07777 8.463 3.22309 8.2425C3.31586 8.10173 3.41411 7.90351 3.54489 7.62777C3.55774 7.60067 3.57085 7.57297 3.58421 7.54472C3.69914 7.30172 3.83306 7.0186 3.98805 6.7383C4.33169 6.11687 4.83272 5.4052 5.65056 4.99767C6.38772 4.63035 7.39871 4.4191 8.34706 4.2953ZM2.33203 15.8125H5.49741C5.69192 15.8125 5.80855 15.7827 6.07618 15.7143C6.08712 15.7115 6.0983 15.7086 6.10976 15.7057C6.41178 15.6285 6.80708 15.5344 7.47173 15.4718M2.33203 15.8125C2.33135 15.8095 2.33066 15.8064 2.32997 15.8034C2.25546 15.4733 2.16355 14.9845 2.09918 14.3663C2.03822 13.7807 2.05624 12.8453 2.13234 11.9908C2.17005 11.5674 2.22047 11.182 2.2776 10.8855C2.30629 10.7365 2.33456 10.6213 2.36002 10.54C2.36803 10.5143 2.37464 10.4958 2.37944 10.4833C2.40064 10.4656 2.4492 10.4282 2.54545 10.37C2.64052 10.3125 2.73876 10.2592 2.8559 10.1956C2.92157 10.16 2.99319 10.1211 3.07352 10.0765C3.46505 9.85897 4.0215 9.52973 4.37119 8.99914C4.52591 8.76436 4.66373 8.47741 4.78724 8.217C4.80037 8.18931 4.81346 8.16166 4.82652 8.13407C4.9436 7.88673 5.05871 7.64353 5.19134 7.40368C5.48858 6.86614 5.82007 6.44945 6.2638 6.22835C6.7882 5.96704 7.61111 5.77803 8.52503 5.65873C9.42158 5.5417 10.3366 5.5 11 5.5C11.6628 5.5 12.5782 5.54261 13.4751 5.66029C14.3894 5.78024 15.2128 5.96956 15.7369 6.22997C16.1792 6.44977 16.5105 6.86571 16.8081 7.40362C16.941 7.64402 17.0565 7.88793 17.1739 8.13597C17.1868 8.16306 17.1996 8.19021 17.2125 8.2174C17.3361 8.47804 17.474 8.7651 17.6285 8.99998C17.9784 9.53176 18.5353 9.86076 18.927 10.0779C19.0077 10.1227 19.0796 10.1616 19.1455 10.1972C19.2623 10.2605 19.3602 10.3135 19.4551 10.3707C19.5501 10.428 19.5985 10.4651 19.62 10.4829C19.6248 10.4955 19.6313 10.5139 19.6392 10.5392C19.6646 10.6207 19.6928 10.7361 19.7215 10.8851C19.7785 11.1818 19.8289 11.5674 19.8666 11.9908C19.9427 12.8454 19.9609 13.7808 19.8999 14.3663C19.8356 14.9845 19.7437 15.4733 19.6692 15.8034C19.6685 15.8064 19.6678 15.8095 19.6671 15.8125H16.5447C16.3532 15.8125 16.2369 15.7829 15.9678 15.7144C15.9568 15.7116 15.9456 15.7087 15.9341 15.7058C15.6314 15.6289 15.2348 15.5348 14.5703 15.4718C13.1888 15.3406 11.7919 15.2969 11 15.2969C10.2073 15.2969 8.85331 15.3407 7.47173 15.4718" fill="#343434"/>
<path fill-rule="evenodd" clip-rule="evenodd" d="M16.5 16.5C16.5 16.1203 16.8078 15.8125 17.1875 15.8125H19.5937C19.9734 15.8125 20.2812 16.1203 20.2812 16.5V17.1875C20.2812 17.5672 19.9734 17.875 19.5937 17.875H17.1875C16.8078 17.875 16.5 17.5672 16.5 17.1875V16.5Z" fill="#343434"/>
<path fill-rule="evenodd" clip-rule="evenodd" d="M1.71874 16.5C1.71874 16.1203 2.02655 15.8125 2.40624 15.8125H4.8125C5.19219 15.8125 5.5 16.1203 5.5 16.5V17.1875C5.5 17.5672 5.19219 17.875 4.8125 17.875H2.40624C2.02655 17.875 1.71874 17.5672 1.71874 17.1875V16.5Z" fill="#343434"/>
<path d="M15.6608 13.2842C15.4068 12.9907 14.5793 12.7458 13.4836 12.5817C12.3879 12.4175 11.9883 12.375 11.0086 12.375C10.0289 12.375 9.58329 12.4455 8.53313 12.5817C7.48298 12.7179 6.6945 12.9602 6.35634 13.2842C5.84888 13.7758 6.59224 14.3275 7.17575 14.3945C7.74122 14.459 8.87173 14.4354 11.0133 14.4354C13.1549 14.4354 14.2854 14.459 14.8508 14.3945C15.4335 14.3236 16.1236 13.8102 15.6608 13.2842Z" fill="#343434"/>
<path d="M18.544 10.4435C18.5416 10.4094 18.5267 10.3774 18.5021 10.3536C18.4775 10.3298 18.445 10.3159 18.4108 10.3146C17.9033 10.2966 17.3881 10.3327 16.4742 10.6021C16.0079 10.7382 15.5701 10.9574 15.1817 11.2492C15.0837 11.3257 15.1185 11.5324 15.2414 11.5543C15.9947 11.6426 16.7526 11.6871 17.511 11.6875C17.9661 11.6875 18.4357 11.5586 18.5229 11.1529C18.5674 10.9191 18.5745 10.6796 18.544 10.4435Z" fill="#343434"/>
<path d="M3.45597 10.4435C3.45838 10.4094 3.47331 10.3774 3.4979 10.3536C3.52248 10.3298 3.55499 10.3159 3.58917 10.3146C4.09663 10.2966 4.61183 10.3327 5.52577 10.6021C5.99205 10.7382 6.42992 10.9574 6.81827 11.2492C6.91624 11.3257 6.88144 11.5324 6.75855 11.5543C6.00523 11.6426 5.24742 11.6871 4.48894 11.6875C4.0339 11.6875 3.56425 11.5586 3.47702 11.1529C3.43255 10.9191 3.42545 10.6796 3.45597 10.4435Z" fill="#343434"/>
<path fill-rule="evenodd" clip-rule="evenodd" d="M17.875 8.25C17.875 7.8703 18.1828 7.5625 18.5625 7.5625H19.25C19.6297 7.5625 19.9375 7.8703 19.9375 8.25C19.9375 8.6297 19.6297 8.9375 19.25 8.9375H18.5625C18.1828 8.9375 17.875 8.6297 17.875 8.25Z" fill="#343434"/>
<path fill-rule="evenodd" clip-rule="evenodd" d="M2.06249 8.25C2.06249 7.8703 2.3703 7.5625 2.74999 7.5625H3.43749C3.81719 7.5625 4.12499 7.8703 4.12499 8.25C4.12499 8.6297 3.81719 8.9375 3.43749 8.9375H2.74999C2.3703 8.9375 2.06249 8.6297 2.06249 8.25Z" fill="#343434"/>
<path fill-rule="evenodd" clip-rule="evenodd" d="M3.52202 9.73245C3.15505 9.82636 2.78106 9.60566 2.68606 9.23872C2.59089 8.87114 2.81172 8.49602 3.1793 8.40085L3.35161 9.06641C3.1793 8.40085 3.17906 8.40091 3.1793 8.40085L3.18029 8.4006L3.18145 8.4003L3.18433 8.39956C3.1865 8.39902 3.18915 8.39835 3.19229 8.39757C3.19858 8.39602 3.20684 8.39401 3.21713 8.39157C3.2377 8.38671 3.26638 8.38015 3.30358 8.37214C3.37796 8.35613 3.48642 8.33433 3.63221 8.30871C3.92373 8.25749 4.36481 8.19095 4.98139 8.12499C6.21429 7.9931 8.15112 7.86328 11 7.86328C13.849 7.86328 15.7858 7.9931 17.0187 8.12499C17.6353 8.19095 18.0764 8.25749 18.3679 8.30871C18.5137 8.33433 18.6221 8.35613 18.6965 8.37214C18.7337 8.38015 18.7624 8.38671 18.783 8.39157C18.7933 8.39401 18.8015 8.39602 18.8078 8.39757C18.811 8.39835 18.8136 8.39902 18.8158 8.39956L18.8186 8.4003L18.8203 8.40073C18.8206 8.40079 18.8208 8.40085 18.6485 9.06641L18.8203 8.40073C19.1879 8.49589 19.4092 8.87114 19.314 9.23872C19.219 9.60565 18.8451 9.82635 18.4781 9.73246M3.52202 9.73245C3.52171 9.73253 3.52217 9.73241 3.52202 9.73245C3.52361 9.73206 3.52791 9.731 3.53359 9.72966C3.54495 9.72697 3.56458 9.72245 3.5929 9.71636C3.64953 9.70417 3.74085 9.68569 3.87017 9.66297C4.12885 9.61751 4.53922 9.55514 5.12765 9.49219C6.30476 9.36627 8.19214 9.23828 11 9.23828C13.808 9.23828 15.6953 9.36627 16.8725 9.49219C17.4609 9.55514 17.8712 9.61751 18.1299 9.66297C18.2592 9.68569 18.3506 9.70417 18.4072 9.71636C18.4355 9.72245 18.4551 9.72697 18.4665 9.72966C18.4722 9.731 18.4765 9.73207 18.4781 9.73246" fill="#343434"/>
</svg>
