<svg width="50" height="50" viewBox="0 0 50 50" fill="none" xmlns="http://www.w3.org/2000/svg">
<g clip-path="url(#clip0_239_2005)">
<path d="M34.375 34.375V43.75H9.375V6.25H25V3.125H9.375C8.5462 3.125 7.75134 3.45424 7.16529 4.04029C6.57924 4.62634 6.25 5.4212 6.25 6.25V43.75C6.25 44.5788 6.57924 45.3737 7.16529 45.9597C7.75134 46.5458 8.5462 46.875 9.375 46.875H34.375C35.2038 46.875 35.9987 46.5458 36.5847 45.9597C37.1708 45.3737 37.5 44.5788 37.5 43.75V34.375H34.375Z" fill="black"/>
<path d="M46.1563 8.99998L41 3.84373C40.5327 3.38566 39.9044 3.12909 39.25 3.12909C38.5956 3.12909 37.9673 3.38566 37.5 3.84373L15.625 25.7187V34.375H24.2656L46.1406 12.5C46.5987 12.0327 46.8553 11.4044 46.8553 10.75C46.8553 10.0956 46.5987 9.4673 46.1406 8.99998H46.1563ZM22.9687 31.25H18.75V27.0312L33.5 12.2656L37.7344 16.5L22.9687 31.25ZM39.9375 14.2969L35.7031 10.0625L39.25 6.51561L43.4844 10.75L39.9375 14.2969Z" fill="black"/>
</g>
<defs>
<clipPath id="clip0_239_2005">
<rect width="50" height="50" fill="white"/>
</clipPath>
</defs>
</svg>
