<svg width="20" height="20" viewBox="0 0 20 20" fill="none" xmlns="http://www.w3.org/2000/svg">
<path d="M9.99194 6V11.6M9.99194 13.4V13.8M10 3L10.7838 3.04401L11.5576 3.1755L12.312 3.39282L13.0372 3.69322L13.7242 4.07293L14.3644 4.52718L14.9497 5.05025L15.4728 5.63557L15.9271 6.27578L16.3068 6.96281L16.6072 7.68805L16.8245 8.44235L16.956 9.21625L17 10L16.956 10.7838L16.8245 11.5576L16.6072 12.312L16.3068 13.0372L15.9271 13.7242L15.4728 14.3644L14.9497 14.9497L14.3644 15.4728L13.7242 15.9271L13.0372 16.3068L12.312 16.6072L11.5576 16.8245L10.7838 16.956L10 17L9.21625 16.956L8.44235 16.8245L7.68805 16.6072L6.96281 16.3068L6.27578 15.9271L5.63557 15.4728L5.05025 14.9497L4.52718 14.3644L4.07293 13.7242L3.69322 13.0372L3.39282 12.312L3.1755 11.5576L3.04401 10.7838L3 10L3.04401 9.21625L3.1755 8.44235L3.39282 7.68805L3.69322 6.96281L4.07293 6.27578L4.52718 5.63557L5.05025 5.05025L5.63557 4.52718L6.27578 4.07293L6.96281 3.69322L7.68805 3.39282L8.44235 3.1755L9.21625 3.04401L10 3Z" stroke="#414141" stroke-linecap="round" stroke-linejoin="round"/>
</svg>
