<svg width="20" height="20" viewBox="0 0 20 20" fill="none" xmlns="http://www.w3.org/2000/svg">
<path d="M6.2417 9.8266C6.14803 10.2723 5.85999 10.6527 5.45644 10.8638C5.01392 11.0953 4.48608 11.0953 4.04356 10.8638C3.64001 10.6527 3.35197 10.2723 3.2583 9.8266L3.22583 9.67208C3.12943 9.21338 3.23288 8.73534 3.51029 8.35754L3.56289 8.2859C3.84037 7.90802 4.28118 7.68481 4.75 7.68481C5.21882 7.68481 5.65963 7.90802 5.93711 8.2859L5.98971 8.35754C6.26712 8.73534 6.37057 9.21338 6.27417 9.67208L6.2417 9.8266Z" stroke="#414141" stroke-linecap="round" stroke-linejoin="round"/>
<path d="M2 14.0333C2 14.291 2.20893 14.5 2.46667 14.5H5.32766C5.51162 13.6827 6.01209 12.9682 6.71877 12.5162C6.59158 12.4255 6.45162 12.3499 6.301 12.2924L6.19555 12.2522C5.26459 11.8969 4.23541 11.8969 3.30446 12.2522L3.199 12.2924C2.477 12.5679 2 13.2605 2 14.0333Z" stroke="#414141" stroke-linecap="round" stroke-linejoin="round"/>
<path d="M17.5333 14.5H14.6723C14.4884 13.6827 13.9879 12.9682 13.2813 12.5163C13.4084 12.4255 13.5484 12.3499 13.699 12.2925L13.8045 12.2522C14.7354 11.8969 15.7646 11.8969 16.6955 12.2522L16.801 12.2925C17.523 12.568 18 13.2606 18 14.0333C18 14.2911 17.7911 14.5 17.5333 14.5Z" stroke="#414141" stroke-linecap="round" stroke-linejoin="round"/>
<path d="M13.7583 9.82665C13.852 10.2723 14.14 10.6528 14.5436 10.8639C14.9861 11.0953 15.5139 11.0953 15.9564 10.8639C16.36 10.6528 16.648 10.2723 16.7417 9.82665L16.7742 9.67213C16.8706 9.21344 16.7671 8.73539 16.4897 8.35759L16.4371 8.28596C16.1596 7.90807 15.7188 7.68486 15.25 7.68486C14.7812 7.68486 14.3404 7.90807 14.0629 8.28596L14.0103 8.35759C13.7329 8.73539 13.6294 9.21344 13.7258 9.67213L13.7583 9.82665Z" stroke="#414141" stroke-linecap="round" stroke-linejoin="round"/>
<path d="M13.95 16H6.05C5.60817 16 5.25 15.6418 5.25 15.2C5.25 13.8759 6.06908 12.6898 7.30738 12.2208L7.51527 12.142C9.11627 11.5357 10.8837 11.5357 12.4847 12.142L12.6926 12.2208C13.9309 12.6898 14.75 13.8759 14.75 15.2C14.75 15.6418 14.3918 16 13.95 16Z" stroke="#414141" stroke-linecap="round" stroke-linejoin="round"/>
<path d="M8.78533 9.76948C9.54687 10.1648 10.4531 10.1648 11.2147 9.76948C11.9151 9.4059 12.4158 8.74768 12.5793 7.97563L12.6305 7.73399C12.7983 6.94155 12.6185 6.11518 12.1368 5.464L12.0542 5.35239C11.5723 4.7011 10.8102 4.31689 10 4.31689C9.18983 4.31689 8.42766 4.7011 7.9458 5.3524L7.86323 5.464C7.38146 6.11518 7.20174 6.94155 7.36954 7.73399L7.4207 7.97563C7.58418 8.74768 8.08491 9.4059 8.78533 9.76948Z" stroke="#414141" stroke-linecap="round" stroke-linejoin="round"/>
</svg>
