<svg width="20" height="20" viewBox="0 0 20 20" fill="none" xmlns="http://www.w3.org/2000/svg">
<path d="M16.5 10C16.5 13.5899 13.5899 16.5 10 16.5V18.5C14.6944 18.5 18.5 14.6944 18.5 10H16.5ZM10 16.5C6.41015 16.5 3.5 13.5899 3.5 10H1.5C1.5 14.6944 5.30558 18.5 10 18.5V16.5ZM3.5 10C3.5 6.41015 6.41015 3.5 10 3.5V1.5C5.30558 1.5 1.5 5.30558 1.5 10H3.5ZM10 3.5C13.5899 3.5 16.5 6.41015 16.5 10H18.5C18.5 5.30558 14.6944 1.5 10 1.5V3.5ZM12.3333 10C12.3333 11.2887 11.2887 12.3333 10 12.3333V14.3333C12.3932 14.3333 14.3333 12.3932 14.3333 10H12.3333ZM10 12.3333C8.71134 12.3333 7.66667 11.2887 7.66667 10H5.66667C5.66667 12.3932 7.60677 14.3333 10 14.3333V12.3333ZM7.66667 10C7.66667 8.71134 8.71134 7.66667 10 7.66667V5.66667C7.60677 5.66667 5.66667 7.60677 5.66667 10H7.66667ZM10 7.66667C11.2887 7.66667 12.3333 8.71134 12.3333 10H14.3333C14.3333 7.60677 12.3932 5.66667 10 5.66667V7.66667ZM14.5962 3.98959L11.6499 6.93587L13.0641 8.35008L16.0104 5.40381L14.5962 3.98959ZM11.6499 13.0641L14.5962 16.0104L16.0104 14.5962L13.0641 11.6499L11.6499 13.0641ZM8.35008 6.93587L5.40381 3.98959L3.98959 5.40381L6.93587 8.35008L8.35008 6.93587ZM6.93587 11.6499L3.98959 14.5962L5.40381 16.0104L8.35008 13.0641L6.93587 11.6499Z" fill="#4D4D4D"/>
</svg>
