<svg width="27" height="27" viewBox="0 0 27 27" fill="none" xmlns="http://www.w3.org/2000/svg">
<path d="M21.9375 16.0312V13.0781C21.9375 10.9812 20.2376 9.28125 18.1406 9.28125H16.4531C15.7541 9.28125 15.1875 8.71461 15.1875 8.01562V6.32812C15.1875 4.23117 13.4876 2.53125 11.3906 2.53125H9.28125M9.28125 16.875H17.7188M9.28125 20.25H13.5M11.8125 2.53125H6.32812C5.62914 2.53125 5.0625 3.09789 5.0625 3.79687V23.2031C5.0625 23.9021 5.62914 24.4688 6.32812 24.4688H20.6719C21.3709 24.4688 21.9375 23.9021 21.9375 23.2031V12.6562C21.9375 7.06437 17.4044 2.53125 11.8125 2.53125Z" stroke="#777777" stroke-width="1.5" stroke-linecap="round" stroke-linejoin="round"/>
</svg>
